<?xml version="1.0" encoding="UTF-8"?>
<svg version="1.1" xmlns="http://www.w3.org/2000/svg" width="280" height="84">
<path d="M0 0 C1.99948842 1.44817316 3.81495553 2.97960857 5.63671875 4.64453125 C6.25160156 5.15757813 6.86648437 5.670625 7.5 6.19921875 C14.16846454 12.16799429 18.17455159 20.76515889 18.875 29.67578125 C19.13500428 41.82756003 16.91488995 51.15130463 8.83203125 60.45703125 C1.04414316 68.21720443 -8.78382216 72.74965816 -19.80078125 73.14453125 C-30.76591957 72.74130552 -39.38476457 69.11445722 -47.36328125 61.64453125 C-47.92789063 61.12117188 -48.4925 60.5978125 -49.07421875 60.05859375 C-55.57143999 53.29752596 -59.06067281 43.77930828 -59.48828125 34.4921875 C-58.95580849 22.36179247 -54.41329754 12.21579699 -45.67578125 3.76953125 C-32.51976857 -6.91972905 -14.66145583 -8.40913252 0 0 Z " fill="#94A3CD" transform="translate(68.36328125,9.35546875)"/>
<path d="M0 0 C3.71692165 4.09861043 7.16015625 8.4795491 7.16015625 14.19921875 C5.18015625 14.85921875 3.20015625 15.51921875 1.16015625 16.19921875 C1.65515625 14.71421875 1.65515625 14.71421875 2.16015625 13.19921875 C3.15015625 12.70421875 3.15015625 12.70421875 4.16015625 12.19921875 C1.37097476 11.09380949 1.37097476 11.09380949 -0.83984375 11.19921875 C-1.49984375 9.87921875 -2.15984375 8.55921875 -2.83984375 7.19921875 C-2.17984375 7.19921875 -1.51984375 7.19921875 -0.83984375 7.19921875 C-0.83984375 6.20921875 -0.83984375 5.21921875 -0.83984375 4.19921875 C-1.82984375 4.85921875 -2.81984375 5.51921875 -3.83984375 6.19921875 C-6.31484375 3.22921875 -6.31484375 3.22921875 -8.83984375 0.19921875 C-8.17984375 -0.79078125 -7.51984375 -1.78078125 -6.83984375 -2.80078125 C-7.49984375 -3.13078125 -8.15984375 -3.46078125 -8.83984375 -3.80078125 C-9.49984375 -2.48078125 -10.15984375 -1.16078125 -10.83984375 0.19921875 C-11.83984375 -1.80078125 -11.83984375 -1.80078125 -11.83984375 -3.80078125 C-12.49984375 -3.14078125 -13.15984375 -2.48078125 -13.83984375 -1.80078125 C-13.83984375 -2.46078125 -13.83984375 -3.12078125 -13.83984375 -3.80078125 C-14.49984375 -3.80078125 -15.15984375 -3.80078125 -15.83984375 -3.80078125 C-16.33484375 -5.78078125 -16.33484375 -5.78078125 -16.83984375 -7.80078125 C-16.83984375 -6.48078125 -16.83984375 -5.16078125 -16.83984375 -3.80078125 C-19.47984375 -4.13078125 -22.11984375 -4.46078125 -24.83984375 -4.80078125 C-25.33484375 -6.28578125 -25.33484375 -6.28578125 -25.83984375 -7.80078125 C-26.16984375 -6.81078125 -26.49984375 -5.82078125 -26.83984375 -4.80078125 C-30.71484375 -5.67578125 -30.71484375 -5.67578125 -31.83984375 -6.80078125 C-32.49984375 -6.14078125 -33.15984375 -5.48078125 -33.83984375 -4.80078125 C-35.15984375 -6.12078125 -36.47984375 -7.44078125 -37.83984375 -8.80078125 C-37.17984375 -7.15078125 -36.51984375 -5.50078125 -35.83984375 -3.80078125 C-37.81984375 -3.80078125 -39.79984375 -3.80078125 -41.83984375 -3.80078125 C-41.50984375 -3.14078125 -41.17984375 -2.48078125 -40.83984375 -1.80078125 C-41.82984375 -1.47078125 -42.81984375 -1.14078125 -43.83984375 -0.80078125 C-44.16984375 -2.12078125 -44.49984375 -3.44078125 -44.83984375 -4.80078125 C-45.16984375 -3.81078125 -45.49984375 -2.82078125 -45.83984375 -1.80078125 C-46.49984375 -1.80078125 -47.15984375 -1.80078125 -47.83984375 -1.80078125 C-47.83984375 -1.14078125 -47.83984375 -0.48078125 -47.83984375 0.19921875 C-47.17984375 0.52921875 -46.51984375 0.85921875 -45.83984375 1.19921875 C-47.77734375 1.76171875 -47.77734375 1.76171875 -49.83984375 2.19921875 C-50.16984375 1.86921875 -50.49984375 1.53921875 -50.83984375 1.19921875 C-51.16984375 2.18921875 -51.49984375 3.17921875 -51.83984375 4.19921875 C-52.49984375 4.52921875 -53.15984375 4.85921875 -53.83984375 5.19921875 C-53.17984375 5.85921875 -52.51984375 6.51921875 -51.83984375 7.19921875 C-53.48984375 7.52921875 -55.13984375 7.85921875 -56.83984375 8.19921875 C-55.31193171 10.84089103 -55.31193171 10.84089103 -52.83984375 13.19921875 C-49.1718456 13.61693679 -49.1718456 13.61693679 -45.83984375 13.19921875 C-45.83984375 12.20921875 -45.83984375 11.21921875 -45.83984375 10.19921875 C-47.15984375 9.86921875 -48.47984375 9.53921875 -49.83984375 9.19921875 C-49.11796875 8.97234375 -48.39609375 8.74546875 -47.65234375 8.51171875 C-44.30775062 6.95090862 -42.32380416 4.89609005 -39.83984375 2.19921875 C-38.18984375 3.84921875 -36.53984375 5.49921875 -34.83984375 7.19921875 C-35.16984375 7.85921875 -35.49984375 8.51921875 -35.83984375 9.19921875 C-34.51984375 9.85921875 -33.19984375 10.51921875 -31.83984375 11.19921875 C-32.16984375 11.85921875 -32.49984375 12.51921875 -32.83984375 13.19921875 C-34.15984375 12.53921875 -35.47984375 11.87921875 -36.83984375 11.19921875 C-37.16984375 13.50921875 -37.49984375 15.81921875 -37.83984375 18.19921875 C-38.81566406 18.24820313 -39.79148437 18.2971875 -40.796875 18.34765625 C-42.06917969 18.42242187 -43.34148438 18.4971875 -44.65234375 18.57421875 C-45.91691406 18.64382812 -47.18148437 18.7134375 -48.484375 18.78515625 C-51.96739609 18.96024814 -51.96739609 18.96024814 -54.83984375 21.19921875 C-49.55984375 21.19921875 -44.27984375 21.19921875 -38.83984375 21.19921875 C-38.83984375 21.52921875 -38.83984375 21.85921875 -38.83984375 22.19921875 C-47.25484375 22.69421875 -47.25484375 22.69421875 -55.83984375 23.19921875 C-55.50984375 23.85921875 -55.17984375 24.51921875 -54.83984375 25.19921875 C-49.55984375 25.19921875 -44.27984375 25.19921875 -38.83984375 25.19921875 C-38.83984375 25.52921875 -38.83984375 25.85921875 -38.83984375 26.19921875 C-47.25484375 26.69421875 -47.25484375 26.69421875 -55.83984375 27.19921875 C-55.83984375 28.18921875 -55.83984375 29.17921875 -55.83984375 30.19921875 C-54.84984375 29.70421875 -54.84984375 29.70421875 -53.83984375 29.19921875 C-52.46436219 29.11613237 -51.08498579 29.09185859 -49.70703125 29.1015625 C-48.90136719 29.10478516 -48.09570312 29.10800781 -47.265625 29.11132812 C-46.00298828 29.12389648 -46.00298828 29.12389648 -44.71484375 29.13671875 C-43.44060547 29.14348633 -43.44060547 29.14348633 -42.140625 29.15039062 C-40.04033466 29.16219001 -37.94008045 29.18012569 -35.83984375 29.19921875 C-35.83984375 28.20921875 -35.83984375 27.21921875 -35.83984375 26.19921875 C-34.51984375 26.19921875 -33.19984375 26.19921875 -31.83984375 26.19921875 C-31.83984375 25.20921875 -31.83984375 24.21921875 -31.83984375 23.19921875 C-28.4616695 22.35467519 -26.16519132 22.09076956 -22.83984375 23.19921875 C-22.83984375 24.18921875 -22.83984375 25.17921875 -22.83984375 26.19921875 C-21.51984375 26.19921875 -20.19984375 26.19921875 -18.83984375 26.19921875 C-18.02734375 28.38671875 -18.02734375 28.38671875 -17.83984375 31.19921875 C-20.08984375 33.82421875 -20.08984375 33.82421875 -22.83984375 36.19921875 C-25.19008889 38.38158924 -25.78707168 39.04090253 -26.83984375 42.19921875 C-24.3671761 41.85476994 -24.3671761 41.85476994 -21.83984375 41.19921875 C-21.34484375 40.20921875 -21.34484375 40.20921875 -20.83984375 39.19921875 C-21.82984375 38.86921875 -22.81984375 38.53921875 -23.83984375 38.19921875 C-20.07684001 36.94488417 -16.56773466 37.09226453 -12.65234375 37.13671875 C-11.90275391 37.14123047 -11.15316406 37.14574219 -10.38085938 37.15039062 C-8.53381992 37.16215521 -6.68682162 37.1800901 -4.83984375 37.19921875 C-4.83984375 37.52921875 -4.83984375 37.85921875 -4.83984375 38.19921875 C-10.77984375 38.69421875 -10.77984375 38.69421875 -16.83984375 39.19921875 C-16.83984375 40.18921875 -16.83984375 41.17921875 -16.83984375 42.19921875 C-16.50984375 42.52921875 -16.17984375 42.85921875 -15.83984375 43.19921875 C-15.79920543 44.8653899 -15.79712275 46.5330997 -15.83984375 48.19921875 C-14.18984375 48.52921875 -12.53984375 48.85921875 -10.83984375 49.19921875 C-10.83984375 49.52921875 -10.83984375 49.85921875 -10.83984375 50.19921875 C-15.45984375 50.52921875 -20.07984375 50.85921875 -24.83984375 51.19921875 C-25.16984375 52.18921875 -25.49984375 53.17921875 -25.83984375 54.19921875 C-26.82984375 53.86921875 -27.81984375 53.53921875 -28.83984375 53.19921875 C-28.83984375 47.91921875 -28.83984375 42.63921875 -28.83984375 37.19921875 C-30.48984375 36.53921875 -32.13984375 35.87921875 -33.83984375 35.19921875 C-34.85925565 34.219015 -35.86230731 33.22118867 -36.83984375 32.19921875 C-40.03109779 31.1354674 -42.36455346 31.06586391 -45.71484375 31.07421875 C-46.74351563 31.07164063 -47.7721875 31.0690625 -48.83203125 31.06640625 C-51.82710785 31.12091677 -51.82710785 31.12091677 -54.66015625 31.76953125 C-55.37945312 31.91132812 -56.09875 32.053125 -56.83984375 32.19921875 C-57.16984375 31.86921875 -57.49984375 31.53921875 -57.83984375 31.19921875 C-58.16984375 31.85921875 -58.49984375 32.51921875 -58.83984375 33.19921875 C-59.82984375 33.19921875 -60.81984375 33.19921875 -61.83984375 33.19921875 C-61.83984375 33.85921875 -61.83984375 34.51921875 -61.83984375 35.19921875 C-58.83984375 36.53255208 -58.83984375 36.53255208 -55.83984375 35.19921875 C-56.16984375 36.51921875 -56.49984375 37.83921875 -56.83984375 39.19921875 C-56.17984375 39.19921875 -55.51984375 39.19921875 -54.83984375 39.19921875 C-53.95819516 40.37276451 -53.13474948 41.59026625 -52.33984375 42.82421875 C-47.78500109 49.12061889 -40.46221798 53.61122412 -32.83984375 55.19921875 C-24.3560072 56.16363356 -16.62111629 54.43478677 -9.5078125 49.62109375 C-5.10553437 45.99472735 -2.34054648 42.30482015 0.16015625 37.19921875 C0.82015625 37.52921875 1.48015625 37.85921875 2.16015625 38.19921875 C1.66515625 39.18921875 1.66515625 39.18921875 1.16015625 40.19921875 C2.15015625 39.86921875 3.14015625 39.53921875 4.16015625 39.19921875 C3.83015625 38.20921875 3.50015625 37.21921875 3.16015625 36.19921875 C4.48015625 36.19921875 5.80015625 36.19921875 7.16015625 36.19921875 C5.91893096 44.33138444 0.58379141 50.55905703 -5.625 55.6953125 C-14.20634078 61.52214883 -23.70495879 62.77062176 -33.83984375 62.19921875 C-36.90234375 61.51171875 -36.90234375 61.51171875 -39.83984375 60.19921875 C-40.59910156 59.88082031 -41.35835937 59.56242187 -42.140625 59.234375 C-53.33029287 54.19138356 -59.32781176 46.51833014 -63.83984375 35.19921875 C-66.38510833 24.95608082 -64.7943723 15.06699467 -59.51953125 5.90625 C-53.43408534 -2.68985802 -45.5295061 -9.21472003 -35.09375 -11.3671875 C-21.4827772 -13.0843753 -9.79191214 -9.58401591 0 0 Z " fill="#F8F9FB" transform="translate(75.83984375,17.80078125)"/>
<path d="M0 0 C1.11503906 -0.00257812 2.23007813 -0.00515625 3.37890625 -0.0078125 C8.17975729 0.20065357 8.17975729 0.20065357 10.4375 1.125 C11.72067892 4.97453676 11.50393637 8.07238135 11.4375 12.125 C13.0875 12.455 14.7375 12.785 16.4375 13.125 C15.1175 13.455 13.7975 13.785 12.4375 14.125 C13.4275 16.105 13.4275 16.105 14.4375 18.125 C13.1175 18.125 11.7975 18.125 10.4375 18.125 C10.1075 17.795 9.7775 17.465 9.4375 17.125 C8.9425 17.970625 8.4475 18.81625 7.9375 19.6875 C2.61300499 27.53510066 -4.38088025 31.95479897 -13.5625 34.125 C-22.75277276 35.47774121 -30.46288619 32.50991342 -37.9375 27.25 C-41.3068755 24.57632551 -43.4356326 21.84701796 -45.5625 18.125 C-47.2125 18.455 -48.8625 18.785 -50.5625 19.125 C-49.82 18.444375 -49.82 18.444375 -49.0625 17.75 C-47.33640663 16.24864481 -47.33640663 16.24864481 -47.5625 14.125 C-48.8825 14.455 -50.2025 14.785 -51.5625 15.125 C-51.8925 13.805 -52.2225 12.485 -52.5625 11.125 C-51.5725 10.795 -50.5825 10.465 -49.5625 10.125 C-50.8825 9.465 -52.2025 8.805 -53.5625 8.125 C-51.5825 8.125 -49.6025 8.125 -47.5625 8.125 C-47.5625 8.785 -47.5625 9.445 -47.5625 10.125 C-46.86253906 9.80015625 -46.16257812 9.4753125 -45.44140625 9.140625 C-42.28012809 8.0253844 -39.84242313 7.85809773 -36.5 7.875 C-35.47777344 7.86984375 -34.45554687 7.8646875 -33.40234375 7.859375 C-30.6015422 8.12134818 -28.94659096 8.68425438 -26.5625 10.125 C-26.5625 10.785 -26.5625 11.445 -26.5625 12.125 C-25.77875 12.434375 -24.995 12.74375 -24.1875 13.0625 C-21.5625 14.125 -21.5625 14.125 -19.5625 15.125 C-18.42172343 18.54732972 -18.46434883 21.21173217 -18.5 24.8125 C-18.50902344 25.99199219 -18.51804688 27.17148438 -18.52734375 28.38671875 C-18.53894531 29.29035156 -18.55054688 30.19398437 -18.5625 31.125 C-17.9025 31.125 -17.2425 31.125 -16.5625 31.125 C-16.2325 30.465 -15.9025 29.805 -15.5625 29.125 C-12.83984375 28.4921875 -12.83984375 28.4921875 -9.5 28 C-8.39527344 27.83242187 -7.29054687 27.66484375 -6.15234375 27.4921875 C-4.87037109 27.31042969 -4.87037109 27.31042969 -3.5625 27.125 C-4.5525 26.795 -5.5425 26.465 -6.5625 26.125 C-7.6875 23.25 -7.6875 23.25 -8.5625 20.125 C-9.0575 18.64 -9.0575 18.64 -9.5625 17.125 C-8.9025 16.795 -8.2425 16.465 -7.5625 16.125 C-9.54741642 16.39176204 -9.54741642 16.39176204 -11.5625 17.125 C-12.0575 18.61 -12.0575 18.61 -12.5625 20.125 C-14.2125 20.125 -15.8625 20.125 -17.5625 20.125 C-17.4375 17.875 -17.4375 17.875 -16.5625 15.125 C-15.5725 14.485625 -14.5825 13.84625 -13.5625 13.1875 C-10.2579927 11.39310509 -10.2579927 11.39310509 -9.6875 7.875 C-9.64625 6.9675 -9.605 6.06 -9.5625 5.125 C-8.5725 4.795 -7.5825 4.465 -6.5625 4.125 C-9.0375 3.63 -9.0375 3.63 -11.5625 3.125 C-11.5625 2.465 -11.5625 1.805 -11.5625 1.125 C-7.653812 0.20444918 -4.01157765 -0.00929682 0 0 Z " fill="#9FADD2" transform="translate(66.5625,39.875)"/>
<path d="M0 0 C0.33 0.99 0.66 1.98 1 3 C1.99 3.33 2.98 3.66 4 4 C4.66 4.33 5.32 4.66 6 5 C6 3.35 6 1.7 6 0 C7.485 0.99 7.485 0.99 9 2 C9 2.66 9 3.32 9 4 C10.3921875 4.4021875 10.3921875 4.4021875 11.8125 4.8125 C14.75739092 5.90961622 16.10516197 6.57881807 18 9 C18 9.33 18 9.66 18 10 C13.63253245 11.6691379 10.04277152 12.24762352 5.375 12.1875 C4.26898438 12.18105469 3.16296875 12.17460937 2.0234375 12.16796875 C-0.49557022 12.02802388 -2.60014013 11.73166459 -5 11 C-4.01 11.99 -3.02 12.98 -2 14 C-1.67 13.67 -1.34 13.34 -1 13 C0.9570822 12.92697454 2.91666988 12.91636694 4.875 12.9375 C5.94492187 12.94652344 7.01484375 12.95554687 8.1171875 12.96484375 C9.54417969 12.98224609 9.54417969 12.98224609 11 13 C11.99 13 12.98 13 14 13 C14.66 13.33 15.32 13.66 16 14 C14.26440562 17.057952 12.61527381 19.63379989 10 22 C11.32 21.67 12.64 21.34 14 21 C14.495 24.465 14.495 24.465 15 28 C13.35 28 11.7 28 10 28 C10 29.32 10 30.64 10 32 C5.545 32.495 5.545 32.495 1 33 C1 33.99 1 34.98 1 36 C-0.32 36 -1.64 36 -3 36 C-3 36.99 -3 37.98 -3 39 C-9.6 39.33 -16.2 39.66 -23 40 C-23 37 -23 37 -22 36 C-22.495 34.515 -22.495 34.515 -23 33 C-22.505 32.505 -22.505 32.505 -22 32 C-22 31.01 -22 30.02 -22 29 C-18.43954823 27.81318274 -15.56191663 27.90310168 -11.8125 27.9375 C-10.54019531 27.94652344 -9.26789062 27.95554687 -7.95703125 27.96484375 C-6.49330078 27.98224609 -6.49330078 27.98224609 -5 28 C-4.67 25.69 -4.34 23.38 -4 21 C-2.68 21.33 -1.36 21.66 0 22 C-0.474375 21.5875 -0.94875 21.175 -1.4375 20.75 C-3 19 -3 19 -3.5 16.9375 C-3.87267251 14.60312807 -3.87267251 14.60312807 -7 13 C-8.00893131 14.09601169 -9.00688225 15.20213918 -10 16.3125 C-10.556875 16.92738281 -11.11375 17.54226562 -11.6875 18.17578125 C-13.29201498 20.03131335 -13.29201498 20.03131335 -13 23 C-16.96 23.495 -16.96 23.495 -21 24 C-23.875 19.25 -23.875 19.25 -25 17 C-23.68 16.67 -22.36 16.34 -21 16 C-21 15.01 -21 14.02 -21 13 C-20.34 13.33 -19.68 13.66 -19 14 C-19 13.34 -19 12.68 -19 12 C-19.66 11.67 -20.32 11.34 -21 11 C-20.01 11 -19.02 11 -18 11 C-17.67 10.01 -17.34 9.02 -17 8 C-16.67 8.99 -16.34 9.98 -16 11 C-15.67 10.67 -15.34 10.34 -15 10 C-15 9.34 -15 8.68 -15 8 C-14.34 8 -13.68 8 -13 8 C-13.33 7.01 -13.66 6.02 -14 5 C-13.34 5 -12.68 5 -12 5 C-11.67 5.33 -11.34 5.66 -11 6 C-10.67 5.01 -10.34 4.02 -10 3 C-9.67 3.99 -9.34 4.98 -9 6 C-8.01 5.67 -7.02 5.34 -6 5 C-5.67 5 -5.34 5 -5 5 C-5 3.68 -5 2.36 -5 1 C-3.68 1.66 -2.36 2.32 -1 3 C-0.67 2.01 -0.34 1.02 0 0 Z " fill="#7488BE" transform="translate(43,8)"/>
<path d="M0 0 C1.11503906 -0.00257812 2.23007813 -0.00515625 3.37890625 -0.0078125 C8.17975729 0.20065357 8.17975729 0.20065357 10.4375 1.125 C11.72067892 4.97453676 11.50393637 8.07238135 11.4375 12.125 C13.9125 12.62 13.9125 12.62 16.4375 13.125 C15.1175 13.455 13.7975 13.785 12.4375 14.125 C13.0975 15.445 13.7575 16.765 14.4375 18.125 C13.1175 18.125 11.7975 18.125 10.4375 18.125 C10.1075 17.795 9.7775 17.465 9.4375 17.125 C8.9425 17.970625 8.4475 18.81625 7.9375 19.6875 C3.70837257 25.99383136 -2.25328465 30.99868281 -9.5625 33.125 C-13.5 32.8125 -13.5 32.8125 -16.5625 32.125 C-16.2325 31.135 -15.9025 30.145 -15.5625 29.125 C-11.6025 28.465 -7.6425 27.805 -3.5625 27.125 C-4.5525 26.795 -5.5425 26.465 -6.5625 26.125 C-7.6875 23.25 -7.6875 23.25 -8.5625 20.125 C-8.8925 19.135 -9.2225 18.145 -9.5625 17.125 C-8.9025 16.795 -8.2425 16.465 -7.5625 16.125 C-9.54741642 16.39176204 -9.54741642 16.39176204 -11.5625 17.125 C-11.8925 18.115 -12.2225 19.105 -12.5625 20.125 C-14.2125 20.125 -15.8625 20.125 -17.5625 20.125 C-17.4375 17.875 -17.4375 17.875 -16.5625 15.125 C-15.5725 14.485625 -14.5825 13.84625 -13.5625 13.1875 C-10.2579927 11.39310509 -10.2579927 11.39310509 -9.6875 7.875 C-9.64625 6.9675 -9.605 6.06 -9.5625 5.125 C-8.5725 4.795 -7.5825 4.465 -6.5625 4.125 C-8.2125 3.795 -9.8625 3.465 -11.5625 3.125 C-11.5625 2.465 -11.5625 1.805 -11.5625 1.125 C-7.653812 0.20444918 -4.01157765 -0.00929682 0 0 Z " fill="#8798C7" transform="translate(66.5625,39.875)"/>
<path d="M0 0 C1.32 0 2.64 0 4 0 C2.75877471 8.13216569 -2.57636484 14.35983828 -8.78515625 19.49609375 C-17.36649703 25.32293008 -26.86511504 26.57140301 -37 26 C-40.0625 25.3125 -40.0625 25.3125 -43 24 C-44.13888672 23.52240234 -44.13888672 23.52240234 -45.30078125 23.03515625 C-52.34177792 19.86189978 -58.99421661 15.52587022 -62.21875 8.25 C-62.4765625 7.5075 -62.734375 6.765 -63 6 C-61.35 5.01 -59.7 4.02 -58 3 C-57.68289062 3.50789063 -57.36578125 4.01578125 -57.0390625 4.5390625 C-52.08028634 11.85394225 -44.77187757 17.17252551 -36 19 C-27.51616345 19.96441481 -19.78127254 18.23556802 -12.66796875 13.421875 C-8.26569062 9.7955086 -5.50070273 6.1056014 -3 1 C-2.34 1.33 -1.68 1.66 -1 2 C-1.33 2.66 -1.66 3.32 -2 4 C-1.01 3.67 -0.02 3.34 1 3 C0.505 1.515 0.505 1.515 0 0 Z " fill="#F8F9FB" transform="translate(79,54)"/>
<path d="M0 0 C1.99948842 1.44817316 3.81495553 2.97960857 5.63671875 4.64453125 C6.25160156 5.15757813 6.86648437 5.670625 7.5 6.19921875 C14.16846454 12.16799429 18.17455159 20.76515889 18.875 29.67578125 C19.13500428 41.82756003 16.91488995 51.15130463 8.83203125 60.45703125 C1.04414316 68.21720443 -8.78382216 72.74965816 -19.80078125 73.14453125 C-30.76591957 72.74130552 -39.38476457 69.11445722 -47.36328125 61.64453125 C-47.92789063 61.12117188 -48.4925 60.5978125 -49.07421875 60.05859375 C-55.57143999 53.29752596 -59.06067281 43.77930828 -59.48828125 34.4921875 C-58.95580849 22.36179247 -54.41329754 12.21579699 -45.67578125 3.76953125 C-32.51976857 -6.91972905 -14.66145583 -8.40913252 0 0 Z M-44.71875 5.46875 C-51.82913606 12.0455236 -56.65966222 21.24396682 -57.58203125 30.9453125 C-58.03800091 43.16149966 -53.22999273 52.53123546 -45.11328125 61.39453125 C-37.52362409 68.64687031 -28.56402124 70.9929955 -18.33203125 70.85546875 C-7.5534728 70.08962381 0.93122488 65.74817899 8.38671875 58.01953125 C15.38990249 49.35125487 17.85927643 39.87371504 17.2421875 28.90625 C16.27132745 19.9079853 11.74887037 12.19394242 5.19921875 6.01953125 C-9.97453155 -5.95570508 -29.23777124 -6.52066472 -44.71875 5.46875 Z " fill="#3552A2" transform="translate(68.36328125,9.35546875)"/>
<path d="M0 0 C0.33 0.99 0.66 1.98 1 3 C1.99 3.33 2.98 3.66 4 4 C4.66 4.33 5.32 4.66 6 5 C6 3.35 6 1.7 6 0 C7.485 0.99 7.485 0.99 9 2 C9 2.66 9 3.32 9 4 C10.3921875 4.4021875 10.3921875 4.4021875 11.8125 4.8125 C14.75739092 5.90961622 16.10516197 6.57881807 18 9 C18 9.33 18 9.66 18 10 C13.63253245 11.6691379 10.04277152 12.24762352 5.375 12.1875 C4.26898438 12.18105469 3.16296875 12.17460937 2.0234375 12.16796875 C-0.49557022 12.02802388 -2.60014013 11.73166459 -5 11 C-4.01 11.99 -3.02 12.98 -2 14 C-1.67 13.67 -1.34 13.34 -1 13 C0.9570822 12.92697454 2.91666988 12.91636694 4.875 12.9375 C5.94492187 12.94652344 7.01484375 12.95554687 8.1171875 12.96484375 C9.54417969 12.98224609 9.54417969 12.98224609 11 13 C11.99 13 12.98 13 14 13 C14.66 13.33 15.32 13.66 16 14 C14.9609375 15.47265625 14.9609375 15.47265625 13 17 C9.6015625 17.43359375 9.6015625 17.43359375 5.625 17.4375 C4.31789063 17.45683594 3.01078125 17.47617187 1.6640625 17.49609375 C-2.44210549 16.94014137 -4.07360422 15.85295341 -7 13 C-8.00893131 14.09601169 -9.00688225 15.20213918 -10 16.3125 C-10.556875 16.92738281 -11.11375 17.54226562 -11.6875 18.17578125 C-13.29201498 20.03131335 -13.29201498 20.03131335 -13 23 C-16.96 23.495 -16.96 23.495 -21 24 C-23.875 19.25 -23.875 19.25 -25 17 C-23.68 16.67 -22.36 16.34 -21 16 C-21 15.01 -21 14.02 -21 13 C-20.34 13.33 -19.68 13.66 -19 14 C-19 13.34 -19 12.68 -19 12 C-19.66 11.67 -20.32 11.34 -21 11 C-20.01 11 -19.02 11 -18 11 C-17.67 10.01 -17.34 9.02 -17 8 C-16.67 8.99 -16.34 9.98 -16 11 C-15.67 10.67 -15.34 10.34 -15 10 C-15 9.34 -15 8.68 -15 8 C-14.34 8 -13.68 8 -13 8 C-13.33 7.01 -13.66 6.02 -14 5 C-13.34 5 -12.68 5 -12 5 C-11.67 5.33 -11.34 5.66 -11 6 C-10.67 5.01 -10.34 4.02 -10 3 C-9.67 3.99 -9.34 4.98 -9 6 C-8.01 5.67 -7.02 5.34 -6 5 C-5.67 5 -5.34 5 -5 5 C-5 3.68 -5 2.36 -5 1 C-3.68 1.66 -2.36 2.32 -1 3 C-0.67 2.01 -0.34 1.02 0 0 Z " fill="#A9B5D7" transform="translate(43,8)"/>
<path d="M0 0 C3.71692165 4.09861043 7.16015625 8.4795491 7.16015625 14.19921875 C5.18015625 14.85921875 3.20015625 15.51921875 1.16015625 16.19921875 C1.65515625 14.71421875 1.65515625 14.71421875 2.16015625 13.19921875 C3.15015625 12.70421875 3.15015625 12.70421875 4.16015625 12.19921875 C1.37097476 11.09380949 1.37097476 11.09380949 -0.83984375 11.19921875 C-1.49984375 9.87921875 -2.15984375 8.55921875 -2.83984375 7.19921875 C-2.17984375 7.19921875 -1.51984375 7.19921875 -0.83984375 7.19921875 C-0.83984375 6.20921875 -0.83984375 5.21921875 -0.83984375 4.19921875 C-1.82984375 4.85921875 -2.81984375 5.51921875 -3.83984375 6.19921875 C-6.31484375 3.22921875 -6.31484375 3.22921875 -8.83984375 0.19921875 C-8.17984375 -0.79078125 -7.51984375 -1.78078125 -6.83984375 -2.80078125 C-7.49984375 -3.13078125 -8.15984375 -3.46078125 -8.83984375 -3.80078125 C-9.49984375 -2.48078125 -10.15984375 -1.16078125 -10.83984375 0.19921875 C-11.83984375 -1.80078125 -11.83984375 -1.80078125 -11.83984375 -3.80078125 C-12.49984375 -3.14078125 -13.15984375 -2.48078125 -13.83984375 -1.80078125 C-13.83984375 -2.46078125 -13.83984375 -3.12078125 -13.83984375 -3.80078125 C-14.49984375 -3.80078125 -15.15984375 -3.80078125 -15.83984375 -3.80078125 C-16.33484375 -5.78078125 -16.33484375 -5.78078125 -16.83984375 -7.80078125 C-16.83984375 -6.48078125 -16.83984375 -5.16078125 -16.83984375 -3.80078125 C-19.47984375 -4.13078125 -22.11984375 -4.46078125 -24.83984375 -4.80078125 C-25.33484375 -6.28578125 -25.33484375 -6.28578125 -25.83984375 -7.80078125 C-26.16984375 -6.81078125 -26.49984375 -5.82078125 -26.83984375 -4.80078125 C-30.71484375 -5.67578125 -30.71484375 -5.67578125 -31.83984375 -6.80078125 C-32.49984375 -6.14078125 -33.15984375 -5.48078125 -33.83984375 -4.80078125 C-35.15984375 -6.12078125 -36.47984375 -7.44078125 -37.83984375 -8.80078125 C-37.17984375 -7.15078125 -36.51984375 -5.50078125 -35.83984375 -3.80078125 C-37.81984375 -3.80078125 -39.79984375 -3.80078125 -41.83984375 -3.80078125 C-41.50984375 -3.14078125 -41.17984375 -2.48078125 -40.83984375 -1.80078125 C-41.82984375 -1.47078125 -42.81984375 -1.14078125 -43.83984375 -0.80078125 C-44.16984375 -2.12078125 -44.49984375 -3.44078125 -44.83984375 -4.80078125 C-45.16984375 -3.81078125 -45.49984375 -2.82078125 -45.83984375 -1.80078125 C-46.49984375 -1.80078125 -47.15984375 -1.80078125 -47.83984375 -1.80078125 C-47.83984375 -1.14078125 -47.83984375 -0.48078125 -47.83984375 0.19921875 C-47.17984375 0.52921875 -46.51984375 0.85921875 -45.83984375 1.19921875 C-47.77734375 1.76171875 -47.77734375 1.76171875 -49.83984375 2.19921875 C-50.16984375 1.86921875 -50.49984375 1.53921875 -50.83984375 1.19921875 C-51.16984375 2.18921875 -51.49984375 3.17921875 -51.83984375 4.19921875 C-52.49984375 4.52921875 -53.15984375 4.85921875 -53.83984375 5.19921875 C-53.17984375 5.85921875 -52.51984375 6.51921875 -51.83984375 7.19921875 C-53.48984375 7.52921875 -55.13984375 7.85921875 -56.83984375 8.19921875 C-56.17984375 9.51921875 -55.51984375 10.83921875 -54.83984375 12.19921875 C-55.49984375 12.19921875 -56.15984375 12.19921875 -56.83984375 12.19921875 C-57.49984375 12.52921875 -58.15984375 12.85921875 -58.83984375 13.19921875 C-59.49984375 12.86921875 -60.15984375 12.53921875 -60.83984375 12.19921875 C-60.83984375 12.85921875 -60.83984375 13.51921875 -60.83984375 14.19921875 C-59.18984375 14.19921875 -57.53984375 14.19921875 -55.83984375 14.19921875 C-56.16984375 15.51921875 -56.49984375 16.83921875 -56.83984375 18.19921875 C-58.83984375 17.19921875 -58.83984375 17.19921875 -61.83984375 15.19921875 C-62.16984375 15.85921875 -62.49984375 16.51921875 -62.83984375 17.19921875 C-62.47078432 8.52632215 -57.68927823 2.69253443 -51.52734375 -3.11328125 C-35.93466989 -16.15915171 -14.31184218 -14.00798141 0 0 Z " fill="#E0E4F0" transform="translate(75.83984375,17.80078125)"/>
<path d="M0 0 C1.32 0 2.64 0 4 0 C4 6.27 4 12.54 4 19 C-5.35384615 19.49230769 -5.35384615 19.49230769 -8.625 17 C-9.07875 16.34 -9.5325 15.68 -10 15 C-10.66 16.32 -11.32 17.64 -12 19 C-13.32 19 -14.64 19 -16 19 C-16.33 15.7 -16.66 12.4 -17 9 C-17.66 9 -18.32 9 -19 9 C-19.33 11.97 -19.66 14.94 -20 18 C-21.65 18.33 -23.3 18.66 -25 19 C-25 14.38 -25 9.76 -25 5 C-19.0984456 3.85492228 -19.0984456 3.85492228 -16 4 C-12.9375 6.4375 -12.9375 6.4375 -11 9 C-10.443125 8.0409375 -10.443125 8.0409375 -9.875 7.0625 C-7.40578393 4.34636232 -5.57212851 4.38001367 -2 4 C-1.34 3.67 -0.68 3.34 0 3 C0 2.01 0 1.02 0 0 Z M-5 9 C-5.33 10.32 -5.66 11.64 -6 13 C-4.02 13.99 -4.02 13.99 -2 15 C-0.70366379 13.93354885 -0.70366379 13.93354885 -0.9375 11.4375 C-0.958125 10.633125 -0.97875 9.82875 -1 9 C-2.32 9 -3.64 9 -5 9 Z " fill="#04278B" transform="translate(244,46)"/>
<path d="M0 0 C1.98 1.32 3.96 2.64 6 4 C5.67 4.99 5.34 5.98 5 7 C6.32 7.66 7.64 8.32 9 9 C8.67 9.66 8.34 10.32 8 11 C6.68 10.34 5.36 9.68 4 9 C3.67 11.31 3.34 13.62 3 16 C2.02417969 16.04898438 1.04835938 16.09796875 0.04296875 16.1484375 C-1.22933594 16.22320312 -2.50164063 16.29796875 -3.8125 16.375 C-5.07707031 16.44460937 -6.34164063 16.51421875 -7.64453125 16.5859375 C-11.12755234 16.76102939 -11.12755234 16.76102939 -14 19 C-8.72 19 -3.44 19 2 19 C2 19.33 2 19.66 2 20 C-6.415 20.495 -6.415 20.495 -15 21 C-15.33 22.65 -15.66 24.3 -16 26 C-16.33 24.68 -16.66 23.36 -17 22 C-18.65 22 -20.3 22 -22 22 C-20 19 -20 19 -19 18 C-20.32 17.34 -21.64 16.68 -23 16 C-22 14 -22 14 -19 13 C-18.01 13.99 -17.02 14.98 -16 16 C-16 15.01 -16 14.02 -16 13 C-17.32 12.67 -18.64 12.34 -20 12 C-20 11.34 -20 10.68 -20 10 C-19.01 10 -18.02 10 -17 10 C-17.66 9.34 -18.32 8.68 -19 8 C-16.0625 8.375 -16.0625 8.375 -13 9 C-12.67 9.66 -12.34 10.32 -12 11 C-9.69 11 -7.38 11 -5 11 C-5 10.01 -5 9.02 -5 8 C-6.32 7.67 -7.64 7.34 -9 7 C-7.88625 6.6596875 -7.88625 6.6596875 -6.75 6.3125 C-3.48860409 4.75592468 -2.07105025 2.91481146 0 0 Z " fill="#93A2CC" transform="translate(35,20)"/>
<path d="M0 0 C2.97 0.495 2.97 0.495 6 1 C6 1.66 6 2.32 6 3 C8.97 3.495 8.97 3.495 12 4 C12.33 5.98 12.66 7.96 13 10 C13.66 10 14.32 10 15 10 C15.66 8.02 16.32 6.04 17 4 C18.65 3.67 20.3 3.34 22 3 C19.32365696 10.19541408 16.59434934 17.21067348 13 24 C11.68 24 10.36 24 9 24 C9.14308594 23.00419922 9.14308594 23.00419922 9.2890625 21.98828125 C10.20315322 15.28354475 10.20315322 15.28354475 8 9 C7.525625 9.639375 7.05125 10.27875 6.5625 10.9375 C5 13 5 13 4 14 C4.99 14 5.98 14 7 14 C7 15.32 7 16.64 7 18 C4.125 17.6875 4.125 17.6875 1 17 C-1.04355211 13.93467184 -1.38658825 12.61645311 -1.75 9.0625 C-1.84796875 8.20785156 -1.9459375 7.35320313 -2.046875 6.47265625 C-1.99549449 3.76233444 -1.38633814 2.29812206 0 0 Z " fill="#04268B" transform="translate(157,47)"/>
<path d="M0 0 C0.91007813 0.10183594 1.82015625 0.20367188 2.7578125 0.30859375 C3.45648438 0.39238281 4.15515625 0.47617187 4.875 0.5625 C4.9831866 3.14695773 5.06237237 5.72687352 5.125 8.3125 C5.17527344 9.40691406 5.17527344 9.40691406 5.2265625 10.5234375 C5.29146997 14.09334849 5.19257878 16.13091859 3.046875 19.046875 C0.0881524 21.11159509 -1.59076814 21.15153864 -5.125 20.5625 C-7.5 18.6875 -7.5 18.6875 -9.125 16.5625 C-9.125 15.9025 -9.125 15.2425 -9.125 14.5625 C-8.465 14.2325 -7.805 13.9025 -7.125 13.5625 C-7.785 12.9025 -8.445 12.2425 -9.125 11.5625 C-9.50390625 9.6875 -9.50390625 9.6875 -9.6875 7.5625 C-9.90184784 5.18280153 -10.04838668 3.71572664 -11.125 1.5625 C-10.50625 1.418125 -9.8875 1.27375 -9.25 1.125 C-3.48214286 -0.40178571 -3.48214286 -0.40178571 0 0 Z M-4.125 4.5625 C-4.455 6.2125 -4.785 7.8625 -5.125 9.5625 C-3.17896726 10.15320014 -3.17896726 10.15320014 -1.125 10.5625 C0.17133621 9.49604885 0.17133621 9.49604885 -0.0625 7 C-0.083125 6.195625 -0.10375 5.39125 -0.125 4.5625 C-1.445 4.5625 -2.765 4.5625 -4.125 4.5625 Z M-1.125 13.5625 C-0.125 15.5625 -0.125 15.5625 -0.125 15.5625 Z M-5.125 14.5625 C-4.795 15.2225 -4.465 15.8825 -4.125 16.5625 C-3.135 16.2325 -2.145 15.9025 -1.125 15.5625 C-2.445 15.2325 -3.765 14.9025 -5.125 14.5625 Z " fill="#04268B" transform="translate(190.125,23.4375)"/>
<path d="M0 0 C4.75 0.75 4.75 0.75 7 3 C7.1953125 5.6015625 7.1953125 5.6015625 7.125 8.625 C7.10695313 9.62789062 7.08890625 10.63078125 7.0703125 11.6640625 C7.04710938 12.43492188 7.02390625 13.20578125 7 14 C9.97 14.495 9.97 14.495 13 15 C12.67 15.66 12.34 16.32 12 17 C4.57575628 17.56866548 -1.4163503 16.61194727 -8 13 C-9.78515625 11.36328125 -9.78515625 11.36328125 -11 10 C-10.67 9.01 -10.34 8.02 -10 7 C-8.02 7 -6.04 7 -4 7 C-3.8453125 6.0409375 -3.8453125 6.0409375 -3.6875 5.0625 C-3.460625 4.381875 -3.23375 3.70125 -3 3 C-2.01 2.67 -1.02 2.34 0 2 C0 1.34 0 0.68 0 0 Z " fill="#788BC0" transform="translate(41,57)"/>
<path d="M0 0 C1.98 0.66 3.96 1.32 6 2 C5 4 5 4 4 5 C4.99 5.99 5.98 6.98 7 8 C7.66 7.67 8.32 7.34 9 7 C11.71760108 6.92818179 14.40859388 6.90700494 17.125 6.9375 C17.87910156 6.94201172 18.63320313 6.94652344 19.41015625 6.95117188 C21.27347127 6.96296501 23.13674555 6.98090058 25 7 C25 7.33 25 7.66 25 8 C16.585 8.495 16.585 8.495 8 9 C8 9.99 8 10.98 8 12 C8.66 11.67 9.32 11.34 10 11 C11.37548156 10.91691362 12.75485796 10.89263984 14.1328125 10.90234375 C14.93847656 10.90556641 15.74414062 10.90878906 16.57421875 10.91210938 C17.41597656 10.92048828 18.25773437 10.92886719 19.125 10.9375 C20.39923828 10.94426758 20.39923828 10.94426758 21.69921875 10.95117188 C23.79950909 10.96297126 25.8997633 10.98090694 28 11 C28.33 10.01 28.66 9.02 29 8 C29.99 8.33 30.98 8.66 32 9 C32.495 12.465 32.495 12.465 33 16 C32.48953125 15.7834375 31.9790625 15.566875 31.453125 15.34375 C24.1946664 12.56391479 16.84499999 11.99851955 9.203125 13.578125 C8.47609375 13.71734375 7.7490625 13.8565625 7 14 C6.67 13.67 6.34 13.34 6 13 C5.67 13.66 5.34 14.32 5 15 C4.01 15 3.02 15 2 15 C2 15.66 2 16.32 2 17 C5 18.33333333 5 18.33333333 8 17 C7.37240135 19.92879371 6.41377341 22.36095629 5 25 C0.40063632 20.99327141 -0.75438585 15.0981855 -1.22265625 9.19140625 C-1.2898293 2.57965861 -1.2898293 2.57965861 0 0 Z " fill="#D5DBEB" transform="translate(12,36)"/>
<path d="M0 0 C-0.33 1.98 -0.66 3.96 -1 6 C-4.875 5.125 -4.875 5.125 -6 4 C-6.66 4.66 -7.32 5.32 -8 6 C-9.32 4.68 -10.64 3.36 -12 2 C-11.34 3.65 -10.68 5.3 -10 7 C-11.98 7 -13.96 7 -16 7 C-15.67 7.66 -15.34 8.32 -15 9 C-15.99 9.33 -16.98 9.66 -18 10 C-18.33 8.68 -18.66 7.36 -19 6 C-19.33 6.99 -19.66 7.98 -20 9 C-20.66 9 -21.32 9 -22 9 C-22 9.66 -22 10.32 -22 11 C-21.34 11.33 -20.68 11.66 -20 12 C-21.9375 12.5625 -21.9375 12.5625 -24 13 C-24.33 12.67 -24.66 12.34 -25 12 C-25.33 12.99 -25.66 13.98 -26 15 C-26.99 15.495 -26.99 15.495 -28 16 C-27.34 16.66 -26.68 17.32 -26 18 C-27.65 18.33 -29.3 18.66 -31 19 C-30.34 20.32 -29.68 21.64 -29 23 C-29.66 23 -30.32 23 -31 23 C-31.66 23.33 -32.32 23.66 -33 24 C-33.66 23.67 -34.32 23.34 -35 23 C-35 23.66 -35 24.32 -35 25 C-33.35 25 -31.7 25 -30 25 C-30.33 26.32 -30.66 27.64 -31 29 C-33 28 -33 28 -36 26 C-36.33 26.66 -36.66 27.32 -37 28 C-36.63094057 19.3271034 -31.84943448 13.49331568 -25.6875 7.6875 C-17.42414241 0.78759641 -10.6879501 -0.65104265 0 0 Z " fill="#DFE4F0" transform="translate(50,7)"/>
<path d="M0 0 C0 4.62 0 9.24 0 14 C-1.5675 14.061875 -3.135 14.12375 -4.75 14.1875 C-5.63171875 14.22230469 -6.5134375 14.25710937 -7.421875 14.29296875 C-10.52916406 13.93986772 -11.81116498 13.21365174 -14 11 C-15.07839253 7.69946528 -15.58748247 4.17496494 -14 1 C-9.42577322 -2.02887989 -5.20672973 -0.68509602 0 0 Z M-9 4 C-9.33 5.65 -9.66 7.3 -10 9 C-8.05396726 9.59070014 -8.05396726 9.59070014 -6 10 C-4.70366379 8.93354885 -4.70366379 8.93354885 -4.9375 6.4375 C-4.958125 5.633125 -4.97875 4.82875 -5 4 C-6.32 4 -7.64 4 -9 4 Z " fill="#04268B" transform="translate(231,24)"/>
<path d="M0 0 C0.99 1.485 0.99 1.485 2 3 C-5.20745687 13.77284777 -12.35404674 20.70063432 -24.890625 24.5859375 C-35.16197728 26.60216591 -45.79253079 25.00511861 -54.609375 19.31640625 C-58.358941 16.4674713 -61.70134146 13.35756316 -65 10 C-64.67 9.01 -64.34 8.02 -64 7 C-63.19949219 7.88751953 -63.19949219 7.88751953 -62.3828125 8.79296875 C-55.26631389 16.3403972 -48.02547742 21.34996133 -37.4921875 22.203125 C-26.59777104 22.39824888 -17.46642652 20.06360731 -9 13 C-5.00812583 9.12168024 -2.2495422 5.12395722 0 0 Z " fill="#3B58A4" transform="translate(82,57)"/>
<path d="M0 0 C3.375 0.875 3.375 0.875 5.375 2.875 C5.375 3.865 5.375 4.855 5.375 5.875 C4.055 6.205 2.735 6.535 1.375 6.875 C2.035 7.266875 2.695 7.65875 3.375 8.0625 C5.375 9.875 5.375 9.875 5.875 12.375 C5.375 14.875 5.375 14.875 3.8125 16.75 C0.40618195 18.32214679 -2.02781913 17.63594211 -5.625 16.875 C-6.285 15.225 -6.945 13.575 -7.625 11.875 C-5.975 11.875 -4.325 11.875 -2.625 11.875 C-2.625 12.535 -2.625 13.195 -2.625 13.875 C-1.635 13.215 -0.645 12.555 0.375 11.875 C-1.3265625 11.2871875 -1.3265625 11.2871875 -3.0625 10.6875 C-6.625 8.875 -6.625 8.875 -7.8125 6.4375 C-7.625 3.875 -7.625 3.875 -6.125 1.5 C-3.625 -0.125 -3.625 -0.125 0 0 Z M-2.625 3.875 C-2.295 4.535 -1.965 5.195 -1.625 5.875 C-0.965 5.215 -0.305 4.555 0.375 3.875 C-0.615 3.875 -1.605 3.875 -2.625 3.875 Z " fill="#04268B" transform="translate(99.625,47.125)"/>
<path d="M0 0 C1.32 0 2.64 0 4 0 C4.33 3.96 4.66 7.92 5 12 C6.32 11.34 7.64 10.68 9 10 C9.70176588 7.58320293 9.70176588 7.58320293 9.75 4.875 C9.80671875 3.96492188 9.8634375 3.05484375 9.921875 2.1171875 C9.94765625 1.41851563 9.9734375 0.71984375 10 0 C11.32 0 12.64 0 14 0 C14.13526139 2.24834496 14.23210804 4.49902514 14.3125 6.75 C14.39951172 8.62945313 14.39951172 8.62945313 14.48828125 10.546875 C14 14 14 14 11.67578125 16.45703125 C9 18 9 18 5.875 17.9375 C2.83196342 16.94520546 1.81383737 16.57447885 0 14 C-0.29296875 10.64453125 -0.29296875 10.64453125 -0.1875 6.8125 C-0.16042969 5.54019531 -0.13335937 4.26789062 -0.10546875 2.95703125 C-0.07066406 1.98121094 -0.03585938 1.00539063 0 0 Z " fill="#05278B" transform="translate(120,20)"/>
<path d="M0 0 C0.66 -0.33 1.32 -0.66 2 -1 C2.99 -0.67 3.98 -0.34 5 0 C5 4.62 5 9.24 5 14 C-4.18762089 14.48355899 -4.18762089 14.48355899 -7.625 12.4375 C-9.51879045 9.08032602 -9.48258091 6.79170715 -9 3 C-6.26483222 -0.72977425 -4.27024653 -1.06756163 0 0 Z M-4 4 C-4.33 5.32 -4.66 6.64 -5 8 C-3.02 8.99 -3.02 8.99 -1 10 C-0.34 9.34 0.32 8.68 1 8 C0.6814823 5.89179203 0.6814823 5.89179203 0 4 C-1.32 4 -2.64 4 -4 4 Z " fill="#05268B" transform="translate(265,51)"/>
<path d="M0 0 C0.33 0.99 0.66 1.98 1 3 C1.99 3.33 2.98 3.66 4 4 C4.66 4.33 5.32 4.66 6 5 C6 3.35 6 1.7 6 0 C6.99 0.66 7.98 1.32 9 2 C9 2.66 9 3.32 9 4 C9.928125 4.268125 10.85625 4.53625 11.8125 4.8125 C14.75739092 5.90961622 16.10516197 6.57881807 18 9 C18 9.33 18 9.66 18 10 C13.68928156 11.63599555 10.10557236 12.2719313 5.5 12.25 C3.87578125 12.25773437 3.87578125 12.25773437 2.21875 12.265625 C-1.13574256 11.98879794 -3.86306413 11.19052385 -7 10 C-6.484375 9.443125 -5.96875 8.88625 -5.4375 8.3125 C-3.70523302 6.05914993 -3.70523302 6.05914993 -4.3125 3.25 C-4.539375 2.5075 -4.76625 1.765 -5 1 C-3.68 1.66 -2.36 2.32 -1 3 C-0.67 2.01 -0.34 1.02 0 0 Z " fill="#697FB9" transform="translate(43,8)"/>
<path d="M0 0 C2.875 1 2.875 1 4.8125 2.625 C6.37300943 6.11319754 5.86654664 8.36432898 4.875 12 C3.1875 14 3.1875 14 0.875 15 C-2.23532079 14.87304813 -4.32578043 14.47953174 -7 12.875 C-8.84809221 9.79484632 -8.61560718 7.49557617 -8.125 4 C-5.45946825 0.86408029 -4.13747529 0 0 0 Z M-2.125 4 C-2.455 4.66 -2.785 5.32 -3.125 6 C-1.805 5.67 -0.485 5.34 0.875 5 C-0.115 4.67 -1.105 4.34 -2.125 4 Z M-4.125 9 C-3.795 9.66 -3.465 10.32 -3.125 11 C-1.475 10.67 0.175 10.34 1.875 10 C1.875 9.67 1.875 9.34 1.875 9 C-0.105 9 -2.085 9 -4.125 9 Z " fill="#04268B" transform="translate(149.125,50)"/>
<path d="M0 0 C4.36689189 1.42398649 4.36689189 1.42398649 5.875 3.9375 C6.375 7.375 6.375 7.375 5.875 10.9375 C3.75 13.4375 3.75 13.4375 0.875 14.9375 C-2.30909977 14.873818 -4.27432332 14.44790601 -7 12.8125 C-8.84809221 9.73234632 -8.61560718 7.43307617 -8.125 3.9375 C-5.45043116 0.79094842 -4.15592269 -0.08311845 0 0 Z M-3.125 4.9375 C-3.455 6.2575 -3.785 7.5775 -4.125 8.9375 C-2.145 9.9275 -2.145 9.9275 -0.125 10.9375 C0.535 9.6175 1.195 8.2975 1.875 6.9375 C-0.6 5.9475 -0.6 5.9475 -3.125 4.9375 Z " fill="#04268B" transform="translate(114.125,50.0625)"/>
<path d="M0 0 C3.33794538 1.16102448 4.3364746 1.83747557 5.875 5 C6.375 8 6.375 8 5.875 11 C3.75 13.4375 3.75 13.4375 0.875 15 C-2.30909977 14.936318 -4.27432332 14.51040601 -7 12.875 C-8.84809221 9.79484632 -8.61560718 7.49557617 -8.125 4 C-5.45946825 0.86408029 -4.13747529 0 0 0 Z M-3.125 5 C-3.455 6.32 -3.785 7.64 -4.125 9 C-2.145 9.99 -2.145 9.99 -0.125 11 C1.17133621 9.93354885 1.17133621 9.93354885 0.9375 7.4375 C0.916875 6.633125 0.89625 5.82875 0.875 5 C-0.445 5 -1.765 5 -3.125 5 Z " fill="#04268B" transform="translate(192.125,50)"/>
<path d="M0 0 C3.33794538 1.16102448 4.3364746 1.83747557 5.875 5 C6.375 8 6.375 8 5.875 11 C3.75 13.4375 3.75 13.4375 0.875 15 C-2.30909977 14.936318 -4.27432332 14.51040601 -7 12.875 C-8.84809221 9.79484632 -8.61560718 7.49557617 -8.125 4 C-5.45946825 0.86408029 -4.13747529 0 0 0 Z M-3.125 5 C-3.455 6.32 -3.785 7.64 -4.125 9 C-2.145 9.99 -2.145 9.99 -0.125 11 C1.17133621 9.93354885 1.17133621 9.93354885 0.9375 7.4375 C0.916875 6.633125 0.89625 5.82875 0.875 5 C-0.445 5 -1.765 5 -3.125 5 Z " fill="#04268B" transform="translate(174.125,23)"/>
<path d="M0 0 C3 0.875 3 0.875 4.9375 2.5 C6.49800943 5.98819754 5.99154664 8.23932898 5 11.875 C3.375 13.875 3.375 13.875 1 14.875 C-2.5625 15 -2.5625 15 -6 13.875 C-8.125 10.625 -8.125 10.625 -9 6.875 C-7.23608149 2.46520372 -5.00087249 -0.20836969 0 0 Z M-3 4.875 C-3.33 6.525 -3.66 8.175 -4 9.875 C-2.05396726 10.46570014 -2.05396726 10.46570014 0 10.875 C1.29633621 9.80854885 1.29633621 9.80854885 1.0625 7.3125 C1.041875 6.508125 1.02125 5.70375 1 4.875 C-0.32 4.875 -1.64 4.875 -3 4.875 Z " fill="#04268B" transform="translate(153,23.125)"/>
<path d="M0 0 C0.74958984 0.00451172 1.49917969 0.00902344 2.27148438 0.01367188 C4.11852383 0.02543646 5.96552213 0.04337135 7.8125 0.0625 C7.8125 0.3925 7.8125 0.7225 7.8125 1.0625 C1.8725 1.5575 1.8725 1.5575 -4.1875 2.0625 C-4.1875 3.0525 -4.1875 4.0425 -4.1875 5.0625 C-3.8575 5.3925 -3.5275 5.7225 -3.1875 6.0625 C-3.14686168 7.72867115 -3.144779 9.39638095 -3.1875 11.0625 C-1.5375 11.3925 0.1125 11.7225 1.8125 12.0625 C1.8125 12.3925 1.8125 12.7225 1.8125 13.0625 C0.81347656 13.11148438 -0.18554688 13.16046875 -1.21484375 13.2109375 C-2.50519531 13.28570312 -3.79554687 13.36046875 -5.125 13.4375 C-6.41277344 13.50710937 -7.70054688 13.57671875 -9.02734375 13.6484375 C-10.07019531 13.78507812 -11.11304688 13.92171875 -12.1875 14.0625 C-12.5175 14.7225 -12.8475 15.3825 -13.1875 16.0625 C-14.1875 15.0625 -14.1875 15.0625 -14.28515625 12.77734375 C-14.27355469 11.86082031 -14.26195312 10.94429687 -14.25 10 C-14.24097656 9.08089844 -14.23195312 8.16179688 -14.22265625 7.21484375 C-14.21105469 6.50457031 -14.19945312 5.79429688 -14.1875 5.0625 C-13.383125 4.93875 -12.57875 4.815 -11.75 4.6875 C-10.904375 4.48125 -10.05875 4.275 -9.1875 4.0625 C-8.8575 3.4025 -8.5275 2.7425 -8.1875 2.0625 C-9.1775 1.7325 -10.1675 1.4025 -11.1875 1.0625 C-7.42449626 -0.19183458 -3.91539091 -0.04445422 0 0 Z " fill="#A8B4D6" transform="translate(63.1875,54.9375)"/>
<path d="M0 0 C1.98 0 3.96 0 6 0 C6 0.66 6 1.32 6 2 C6.69996094 1.67515625 7.39992188 1.3503125 8.12109375 1.015625 C11.28237191 -0.0996156 13.72007687 -0.26690227 17.0625 -0.25 C18.08472656 -0.25515625 19.10695313 -0.2603125 20.16015625 -0.265625 C22.9609578 -0.00365182 24.61590904 0.55925438 27 2 C27 2.66 27 3.32 27 4 C27.66 4.33 28.32 4.66 29 5 C22.4 5 15.8 5 9 5 C9 5.99 9 6.98 9 8 C10.32 7.67 11.64 7.34 13 7 C13.33 7.66 13.66 8.32 14 9 C13.01 9 12.02 9 11 9 C11.33 9.99 11.66 10.98 12 12 C11.01 12 10.02 12 9 12 C8.34 11.34 7.68 10.68 7 10 C4.89179203 10.3185177 4.89179203 10.3185177 3 11 C3.495 10.54625 3.99 10.0925 4.5 9.625 C6.22609337 8.12364481 6.22609337 8.12364481 6 6 C4.68 6.33 3.36 6.66 2 7 C1.67 5.68 1.34 4.36 1 3 C1.99 2.67 2.98 2.34 4 2 C2.68 1.34 1.36 0.68 0 0 Z " fill="#8B9CC9" transform="translate(13,48)"/>
<path d="M0 0 C1.98 1.32 3.96 2.64 6 4 C5.67 4.99 5.34 5.98 5 7 C6.32 7.66 7.64 8.32 9 9 C8.67 9.66 8.34 10.32 8 11 C6.68 10.34 5.36 9.68 4 9 C3.67 11.31 3.34 13.62 3 16 C1.68 16 0.36 16 -1 16 C-1 15.34 -1 14.68 -1 14 C-5.455 13.01 -5.455 13.01 -10 12 C-10 11.67 -10 11.34 -10 11 C-8.35 11 -6.7 11 -5 11 C-5 10.01 -5 9.02 -5 8 C-6.32 7.67 -7.64 7.34 -9 7 C-7.88625 6.6596875 -7.88625 6.6596875 -6.75 6.3125 C-3.48860409 4.75592468 -2.07105025 2.91481146 0 0 Z " fill="#F3F5F9" transform="translate(35,20)"/>
<path d="M0 0 C2.5 0.1875 2.5 0.1875 5 1 C7.48038907 4.7205836 7.46337203 6.59796571 7 11 C5.25 13.5 5.25 13.5 3 15 C0.78155374 14.80984746 -0.41522155 14.58477845 -2 13 C-2.04063832 11.33382885 -2.042721 9.66611905 -2 8 C-3.32 8.33 -4.64 8.66 -6 9 C-5.67 8.01 -5.34 7.02 -5 6 C-4.34 6 -3.68 6 -3 6 C-2.87625 5.38125 -2.7525 4.7625 -2.625 4.125 C-2 2 -2 2 0 0 Z " fill="#F8F9FB" transform="translate(59,21)"/>
<path d="M0 0 C1.68222656 -0.00386719 1.68222656 -0.00386719 3.3984375 -0.0078125 C6.26764622 0.11029052 8.83708229 0.46717672 11.625 1.125 C11.625 3.105 11.625 5.085 11.625 7.125 C0.735 7.62 0.735 7.62 -10.375 8.125 C-10.375 5.125 -10.375 5.125 -9.375 4.125 C-9.375 3.135 -9.375 2.145 -9.375 1.125 C-6.04566298 0.01522099 -3.50271692 -0.00801537 0 0 Z " fill="#3552A1" transform="translate(30.375,35.875)"/>
<path d="M0 0 C1.8125 1.4375 1.8125 1.4375 3 3 C3 3.66 3 4.32 3 5 C-0.19902639 5.08886184 -2.92677456 4.91058531 -6 4 C-5.67 5.65 -5.34 7.3 -5 9 C-4.01 9.33 -3.02 9.66 -2 10 C-2 9.34 -2 8.68 -2 8 C-0.35 8 1.3 8 3 8 C2.34 9.65 1.68 11.3 1 13 C-2.25 13.75 -2.25 13.75 -6 14 C-8.48961647 12.23106198 -9.62600241 10.82813752 -10.875 8.0625 C-11.04882856 5.19432884 -10.38416443 3.50467849 -9 1 C-5.87568509 -1.37016994 -3.65051344 -1.21683781 0 0 Z " fill="#04268B" transform="translate(213,24)"/>
<path d="M0 0 C1.8125 1.4375 1.8125 1.4375 3 3 C3 3.66 3 4.32 3 5 C-0.19902639 5.08886184 -2.92677456 4.91058531 -6 4 C-5.67 5.65 -5.34 7.3 -5 9 C-4.01 9.33 -3.02 9.66 -2 10 C-2 9.34 -2 8.68 -2 8 C-0.35 8 1.3 8 3 8 C2.34 9.65 1.68 11.3 1 13 C-5.27272727 14.44755245 -5.27272727 14.44755245 -8.4375 12.5 C-10.55253414 9.11594538 -10.49891602 6.92005446 -10 3 C-7.11067924 -0.93998286 -4.57005162 -1.33757608 0 0 Z " fill="#04268B" transform="translate(131,51)"/>
<path d="M0 0 C0 6.27 0 12.54 0 19 C-1.98 19.33 -3.96 19.66 -6 20 C-6.33820166 18.4176994 -6.67035939 16.83410625 -7 15.25 C-7.185625 14.36828125 -7.37125 13.4865625 -7.5625 12.578125 C-8 10 -8 10 -8 6 C-7.34 6 -6.68 6 -6 6 C-5.67 4.35 -5.34 2.7 -5 1 C-2 0 -2 0 0 0 Z " fill="#04278B" transform="translate(206,45)"/>
<path d="M0 0 C0.66 0.33 1.32 0.66 2 1 C1.67 1.99 1.34 2.98 1 4 C3.16874252 3.49396008 4.99967627 3.00016187 7 2 C6.67 3.65 6.34 5.3 6 7 C6.66 6.01 7.32 5.02 8 4 C9.32 4.66 10.64 5.32 12 6 C8.86106466 9.13893534 7.45014233 10.31318953 3.0625 11.125 C2.18722656 11.29257812 1.31195313 11.46015625 0.41015625 11.6328125 C-3.5117037 12.23030818 -7.25358211 11.83840154 -11.1875 11.5 C-12.27417969 11.4071875 -13.36085938 11.314375 -14.48046875 11.21875 C-15.31191406 11.1465625 -16.14335938 11.074375 -17 11 C-17.33 11.66 -17.66 12.32 -18 13 C-19.32 11.68 -20.64 10.36 -22 9 C-20.0625 8.4375 -20.0625 8.4375 -18 8 C-17.67 8.33 -17.34 8.66 -17 9 C-14.91956287 9.12635423 -12.83423788 9.17581705 -10.75 9.1875 C-9.61046875 9.20167969 -8.4709375 9.21585938 -7.296875 9.23046875 C-4.08472955 9.00592304 -1.88703374 8.37296905 1 7 C-0.32 6.34 -1.64 5.68 -3 5 C-2.34 4.67 -1.68 4.34 -1 4 C-0.34786708 1.97536745 -0.34786708 1.97536745 0 0 Z " fill="#8092C4" transform="translate(59,10)"/>
<path d="M0 0 C4.75 0.75 4.75 0.75 7 3 C7.1953125 5.6015625 7.1953125 5.6015625 7.125 8.625 C7.10695313 9.62789062 7.08890625 10.63078125 7.0703125 11.6640625 C7.03550781 12.82035156 7.03550781 12.82035156 7 14 C6.34 14 5.68 14 5 14 C5 13.34 5 12.68 5 12 C3.35 12 1.7 12 0 12 C-0.33 11.01 -0.66 10.02 -1 9 C-1.99 9.495 -1.99 9.495 -3 10 C-3.33 8.02 -3.66 6.04 -4 4 C-2.68 3.34 -1.36 2.68 0 2 C0 1.34 0 0.68 0 0 Z " fill="#7085BD" transform="translate(41,57)"/>
<path d="M0 0 C1.65 0 3.3 0 5 0 C5 5.94 5 11.88 5 18 C3.35 18.33 1.7 18.66 0 19 C0 12.73 0 6.46 0 0 Z " fill="#04278B" transform="translate(160,19)"/>
<path d="M0 0 C0.66 0.33 1.32 0.66 2 1 C2.05392397 3.77109307 2.09363455 6.54113818 2.125 9.3125 C2.14175781 10.09818359 2.15851563 10.88386719 2.17578125 11.69335938 C2.18222656 12.45068359 2.18867187 13.20800781 2.1953125 13.98828125 C2.20578613 14.68477783 2.21625977 15.38127441 2.22705078 16.09887695 C2 18 2 18 0 21 C-2.475 20.01 -2.475 20.01 -5 19 C-4.505 17.515 -4.505 17.515 -4 16 C-2.33333333 16 -0.66666667 16 1 16 C1 15.34 1 14.68 1 14 C-0.65 14 -2.3 14 -4 14 C-4 12.02 -4 10.04 -4 8 C-3.34 7.67 -2.68 7.34 -2 7 C-2.7425 6.319375 -2.7425 6.319375 -3.5 5.625 C-5 4 -5 4 -5 2 C-2.625 0.9375 -2.625 0.9375 0 0 Z " fill="#D4DAEB" transform="translate(83,33)"/>
<path d="M0 0 C0.33 0.99 0.66 1.98 1 3 C1.99 2.67 2.98 2.34 4 2 C6.1875 3.4375 6.1875 3.4375 8 5 C7.01 5.66 6.02 6.32 5 7 C5 7.33 5 7.66 5 8 C3.02 8 1.04 8 -1 8 C-0.34 8.66 0.32 9.32 1 10 C-1.49505962 12.49505962 -2.67328888 12.35948376 -6.125 12.625 C-7.03507812 12.69976562 -7.94515625 12.77453125 -8.8828125 12.8515625 C-9.93082031 12.92503906 -9.93082031 12.92503906 -11 13 C-11 12.01 -11 11.02 -11 10 C-10.34 10.33 -9.68 10.66 -9 11 C-9 10.34 -9 9.68 -9 9 C-9.66 8.67 -10.32 8.34 -11 8 C-10.01 8 -9.02 8 -8 8 C-7.67 7.01 -7.34 6.02 -7 5 C-6.67 5.99 -6.34 6.98 -6 8 C-5.67 7.67 -5.34 7.34 -5 7 C-5 6.34 -5 5.68 -5 5 C-4.34 5 -3.68 5 -3 5 C-3.33 4.01 -3.66 3.02 -4 2 C-3.34 2 -2.68 2 -2 2 C-1.67 2.33 -1.34 2.66 -1 3 C-0.67 2.01 -0.34 1.02 0 0 Z " fill="#6A7FB9" transform="translate(33,11)"/>
<path d="M0 0 C7.25767288 3.16727391 11.34197928 9.83539339 14.2734375 16.921875 C17.62726707 26.51454884 16.84548441 36.706746 13 46 C12.67 46 12.34 46 12 46 C12.1546875 44.84757812 12.309375 43.69515625 12.46875 42.5078125 C14.30266335 27.60726652 13.42937491 16.99178405 4.19921875 4.578125 C2.86918013 2.99096674 1.44650648 1.48178712 0 0 Z " fill="#3250A1" transform="translate(71,13)"/>
<path d="M0 0 C0.99 0 1.98 0 3 0 C3.66 -0.66 4.32 -1.32 5 -2 C4.835 -1.21625 4.67 -0.4325 4.5 0.375 C3.82620644 3.9124162 4.26223402 6.49561161 5 10 C2.03 9.67 -0.94 9.34 -4 9 C-4 8.01 -4 7.02 -4 6 C-2.68 6 -1.36 6 0 6 C-1.11375 5.690625 -1.11375 5.690625 -2.25 5.375 C-5.79231177 3.60384411 -7.02446841 1.36572049 -9 -2 C-5.03573625 -3.61507042 -3.43483611 -2.20181802 0 0 Z " fill="#7488BE" transform="translate(71,22)"/>
<path d="M0 0 C1.11761719 -0.00257812 2.23523438 -0.00515625 3.38671875 -0.0078125 C6.3125 0.125 6.3125 0.125 9.3125 1.125 C8.9825 2.115 8.6525 3.105 8.3125 4.125 C2.0425 4.125 -4.2275 4.125 -10.6875 4.125 C-11.0175 5.445 -11.3475 6.765 -11.6875 8.125 C-13.3375 8.125 -14.9875 8.125 -16.6875 8.125 C-16.375 5.75 -16.375 5.75 -15.6875 3.125 C-10.7869716 -0.14201893 -5.76971293 -0.01340235 0 0 Z " fill="#2E4D9F" transform="translate(65.6875,51.875)"/>
<path d="M0 0 C0.74958984 0.01353516 1.49917969 0.02707031 2.27148438 0.04101562 C4.11879767 0.07631461 5.96574066 0.13012083 7.8125 0.1875 C7.8125 0.5175 7.8125 0.8475 7.8125 1.1875 C-0.6025 1.6825 -0.6025 1.6825 -9.1875 2.1875 C-9.1875 3.1775 -9.1875 4.1675 -9.1875 5.1875 C-8.5275 4.8575 -7.8675 4.5275 -7.1875 4.1875 C-5.81201844 4.10441362 -4.43264204 4.08013984 -3.0546875 4.08984375 C-2.24902344 4.09306641 -1.44335938 4.09628906 -0.61328125 4.09960938 C0.22847656 4.10798828 1.07023437 4.11636719 1.9375 4.125 C2.78699219 4.12951172 3.63648438 4.13402344 4.51171875 4.13867188 C6.61200909 4.15047126 8.7122633 4.16840694 10.8125 4.1875 C11.1425 3.1975 11.4725 2.2075 11.8125 1.1875 C12.8025 1.5175 13.7925 1.8475 14.8125 2.1875 C15.1425 4.4975 15.4725 6.8075 15.8125 9.1875 C15.30203125 8.9709375 14.7915625 8.754375 14.265625 8.53125 C6.21953194 5.44976755 -1.80435745 5.29058453 -10.1875 7.1875 C-10.875 5.375 -10.875 5.375 -11.1875 3.1875 C-8.67794972 -1.02206822 -4.32661794 -0.14736952 0 0 Z " fill="#9FADD2" transform="translate(29.1875,42.8125)"/>
<path d="M0 0 C0 1.65 0 3.3 0 5 C-0.99 5 -1.98 5 -3 5 C-3 7.97 -3 10.94 -3 14 C-4.65 14.33 -6.3 14.66 -8 15 C-8 10.38 -8 5.76 -8 1 C-1.125 0 -1.125 0 0 0 Z " fill="#04268B" transform="translate(144,23)"/>
<path d="M0 0 C1.32 0 2.64 0 4 0 C4 6.27 4 12.54 4 19 C2.68 19 1.36 19 0 19 C0 12.73 0 6.46 0 0 Z " fill="#05278B" transform="translate(233,19)"/>
<path d="M0 0 C1.32 0 2.64 0 4 0 C4 5.94 4 11.88 4 18 C2.68 18 1.36 18 0 18 C0 12.06 0 6.12 0 0 Z " fill="#05278B" transform="translate(213,47)"/>
<path d="M0 0 C2.02907167 3.3146667 2.12742133 5.4315979 1.625 9.25 C1.51414063 10.14203125 1.40328125 11.0340625 1.2890625 11.953125 C1.19367188 12.62859375 1.09828125 13.3040625 1 14 C-0.65 14.33 -2.3 14.66 -4 15 C-4 10.38 -4 5.76 -4 1 C-2.68 0.67 -1.36 0.34 0 0 Z " fill="#04258B" transform="translate(254,50)"/>
<path d="M0 0 C1.65 0 3.3 0 5 0 C5 4.62 5 9.24 5 14 C3.35 14 1.7 14 0 14 C0 9.38 0 4.76 0 0 Z " fill="#04268B" transform="translate(135,51)"/>
<path d="M0 0 C0.33 0.66 0.66 1.32 1 2 C-0.65 2 -2.3 2 -4 2 C-2.00896808 4.43835668 -2.00896808 4.43835668 1.9140625 4.1953125 C3.48449351 4.18200376 5.05486221 4.15813602 6.625 4.125 C7.42679688 4.11597656 8.22859375 4.10695313 9.0546875 4.09765625 C11.03658523 4.07406223 13.01832981 4.03819065 15 4 C15 4.33 15 4.66 15 5 C9.06 5.33 3.12 5.66 -3 6 C-3 6.66 -3 7.32 -3 8 C2.94 8 8.88 8 15 8 C15 8.33 15 8.66 15 9 C12.41703983 9.19522373 9.83395921 9.38144403 7.25 9.5625 C6.52039063 9.61857422 5.79078125 9.67464844 5.0390625 9.73242188 C1.45046349 9.97709908 -1.55027225 9.99666259 -5 9 C-5 8.01 -5 7.02 -5 6 C-6.32 5.67 -7.64 5.34 -9 5 C-7.68 5 -6.36 5 -5 5 C-5 3.68 -5 2.36 -5 1 C-3.35 0.67 -1.7 0.34 0 0 Z " fill="#A7B4D6" transform="translate(58,35)"/>
<path d="M0 0 C0.33 0.66 0.66 1.32 1 2 C-6.92 2 -14.84 2 -23 2 C-23 1.01 -23 0.02 -23 -1 C-15.70017512 -3.43327496 -7.19129159 -2.44232545 0 0 Z " fill="#2E4D9F" transform="translate(45,54)"/>
<path d="M0 0 C3.96 0 7.92 0 12 0 C11.67 1.98 11.34 3.96 11 6 C7.125 5.125 7.125 5.125 6 4 C5.34 4.66 4.68 5.32 4 6 C2.68 4.68 1.36 3.36 0 2 C0.66 3.65 1.32 5.3 2 7 C0.02 7 -1.96 7 -4 7 C-4 6.01 -4 5.02 -4 4 C-3.34 4 -2.68 4 -2 4 C-1.34 2.68 -0.68 1.36 0 0 Z " fill="#EDEFF6" transform="translate(38,7)"/>
<path d="M0 0 C7.82563211 1.01588092 15.53645231 3.3940056 21.73828125 8.35546875 C21.07828125 9.01546875 20.41828125 9.67546875 19.73828125 10.35546875 C19.03703125 9.75734375 18.33578125 9.15921875 17.61328125 8.54296875 C10.07747343 3.51313028 -0.45215267 2.89980154 -9.26171875 3.35546875 C-6.4651401 0.08121362 -4.30797729 -0.14806469 0 0 Z " fill="#5069AE" transform="translate(50.26171875,3.64453125)"/>
<path d="M0 0 C1.20785156 -0.01417969 2.41570312 -0.02835938 3.66015625 -0.04296875 C6.72492498 0.17255134 8.37745415 0.57230898 10.9375 2.1875 C10.9375 2.8475 10.9375 3.5075 10.9375 4.1875 C3.6775 4.1875 -3.5825 4.1875 -11.0625 4.1875 C-11.3925 3.1975 -11.7225 2.2075 -12.0625 1.1875 C-8.00212888 0.22441387 -4.16849699 0.02229143 0 0 Z " fill="#2A499D" transform="translate(66.0625,35.8125)"/>
<path d="M0 0 C2.00720923 0.28674418 4.0085944 0.61866701 6 1 C5.67 3.31 5.34 5.62 5 8 C2.36 8.33 -0.28 8.66 -3 9 C-5.875 4.25 -5.875 4.25 -7 2 C-6.030625 1.855625 -5.06125 1.71125 -4.0625 1.5625 C-1.13513227 1.32437659 -1.13513227 1.32437659 0 0 Z " fill="#6D81BB" transform="translate(25,23)"/>
<path d="M0 0 C0.74958984 0.00451172 1.49917969 0.00902344 2.27148438 0.01367188 C4.11852383 0.02543646 5.96552213 0.04337135 7.8125 0.0625 C7.8125 0.3925 7.8125 0.7225 7.8125 1.0625 C1.8725 1.5575 1.8725 1.5575 -4.1875 2.0625 C-4.30597809 5.01634291 -4.30597809 5.01634291 -3.5625 7.625 C-3.43875 8.429375 -3.315 9.23375 -3.1875 10.0625 C-3.8475 10.7225 -4.5075 11.3825 -5.1875 12.0625 C-6.1875 11.0625 -6.1875 11.0625 -6.25 8.5 C-6.229375 7.695625 -6.20875 6.89125 -6.1875 6.0625 C-8.8275 6.3925 -11.4675 6.7225 -14.1875 7.0625 C-14.1875 6.4025 -14.1875 5.7425 -14.1875 5.0625 C-13.383125 4.93875 -12.57875 4.815 -11.75 4.6875 C-10.904375 4.48125 -10.05875 4.275 -9.1875 4.0625 C-8.8575 3.4025 -8.5275 2.7425 -8.1875 2.0625 C-9.1775 1.7325 -10.1675 1.4025 -11.1875 1.0625 C-7.42449626 -0.19183458 -3.91539091 -0.04445422 0 0 Z " fill="#A7B4D6" transform="translate(63.1875,54.9375)"/>
<path d="M0 0 C1.11503906 -0.00257812 2.23007813 -0.00515625 3.37890625 -0.0078125 C5.92943728 0.10293853 8.01340829 0.3782138 10.4375 1.125 C10.4375 2.115 10.4375 3.105 10.4375 4.125 C3.1775 3.795 -4.0825 3.465 -11.5625 3.125 C-11.5625 2.465 -11.5625 1.805 -11.5625 1.125 C-7.653812 0.20444918 -4.01157765 -0.00929682 0 0 Z " fill="#2A499D" transform="translate(66.5625,39.875)"/>
<path d="M0 0 C1.32 0 2.64 0 4 0 C4 4.62 4 9.24 4 14 C2.35 14.33 0.7 14.66 -1 15 C-0.67 10.05 -0.34 5.1 0 0 Z " fill="#05278B" transform="translate(197,24)"/>
<path d="M0 0 C1.68222656 -0.00386719 1.68222656 -0.00386719 3.3984375 -0.0078125 C6.26764622 0.11029052 8.83708229 0.46717672 11.625 1.125 C11.625 1.785 11.625 2.445 11.625 3.125 C0.735 3.62 0.735 3.62 -10.375 4.125 C-10.045 3.135 -9.715 2.145 -9.375 1.125 C-6.04566298 0.01522099 -3.50271692 -0.00801537 0 0 Z " fill="#2C4B9D" transform="translate(30.375,35.875)"/>
<path d="M0 0 C4.95 0.99 4.95 0.99 10 2 C9.67 3.98 9.34 5.96 9 8 C6.36 7.67 3.72 7.34 1 7 C0.67 4.69 0.34 2.38 0 0 Z " fill="#C5CDE3" transform="translate(50,6)"/>
<path d="M0 0 C1.13308594 -0.00257812 2.26617187 -0.00515625 3.43359375 -0.0078125 C6.01471183 0.10174807 8.11194405 0.36635123 10.5625 1.125 C10.5625 2.115 10.5625 3.105 10.5625 4.125 C4.2925 3.795 -1.9775 3.465 -8.4375 3.125 C-8.7675 2.465 -9.0975 1.805 -9.4375 1.125 C-6.0921121 0.0098707 -3.51991188 -0.00799072 0 0 Z " fill="#29489C" transform="translate(66.4375,43.875)"/>
<path d="M0 0 C1.1446875 -0.00257812 2.289375 -0.00515625 3.46875 -0.0078125 C6.5 0.125 6.5 0.125 9.5 1.125 C9.5 1.785 9.5 2.445 9.5 3.125 C0.095 3.62 0.095 3.62 -9.5 4.125 C-9.5 3.135 -9.5 2.145 -9.5 1.125 C-6.13849548 0.00449849 -3.53713274 -0.00796652 0 0 Z " fill="#27479B" transform="translate(29.5,43.875)"/>
<path d="M0 0 C1.73056641 -0.00386719 1.73056641 -0.00386719 3.49609375 -0.0078125 C6.5625 0.125 6.5625 0.125 9.5625 1.125 C9.5625 2.115 9.5625 3.105 9.5625 4.125 C3.6225 3.795 -2.3175 3.465 -8.4375 3.125 C-8.4375 2.465 -8.4375 1.805 -8.4375 1.125 C-5.59989474 -0.29380263 -3.16067025 -0.0070472 0 0 Z " fill="#3250A0" transform="translate(66.4375,47.875)"/>
<path d="M0 0 C1.051875 -0.00257812 2.10375 -0.00515625 3.1875 -0.0078125 C6 0.125 6 0.125 9 1.125 C9 1.785 9 2.445 9 3.125 C3.06 3.455 -2.88 3.785 -9 4.125 C-9 3.135 -9 2.145 -9 1.125 C-5.77717587 0.05072529 -3.38488847 -0.0082963 0 0 Z " fill="#2C4B9E" transform="translate(30,47.875)"/>
<path d="M0 0 C2.6875 0.0234375 2.6875 0.0234375 6 0.375 C11.69719349 0.91366679 17.28148536 1.1161775 23 1 C23 1.33 23 1.66 23 2 C18.68928156 3.63599555 15.10557236 4.2719313 10.5 4.25 C8.87578125 4.25773437 8.87578125 4.25773437 7.21875 4.265625 C3.86425744 3.98879794 1.13693587 3.19052385 -2 2 C-1.34 1.34 -0.68 0.68 0 0 Z " fill="#29489C" transform="translate(38,16)"/>
<path d="M0 0 C1.98 0.66 3.96 1.32 6 2 C5 4 5 4 4 5 C4.66 5.33 5.32 5.66 6 6 C6 7.98 6 9.96 6 12 C4.35 12 2.7 12 1 12 C1.33 11.34 1.66 10.68 2 10 C2.66 10.33 3.32 10.66 4 11 C4.33 9.68 4.66 8.36 5 7 C3.35 7 1.7 7 0 7 C0 8.65 0 10.3 0 12 C-0.33 12 -0.66 12 -1 12 C-1.02698189 10.37509046 -1.04638757 8.75005367 -1.0625 7.125 C-1.07410156 6.22007813 -1.08570313 5.31515625 -1.09765625 4.3828125 C-1 2 -1 2 0 0 Z " fill="#B0BBDA" transform="translate(12,36)"/>
<path d="M0 0 C0.66 0.33 1.32 0.66 2 1 C1.67 1.66 1.34 2.32 1 3 C0.01 3.33 -0.98 3.66 -2 4 C-2 4.66 -2 5.32 -2 6 C-1.34 6.66 -0.68 7.32 0 8 C-0.99 8.33 -1.98 8.66 -3 9 C-3.33 7.68 -3.66 6.36 -4 5 C-4.33 5.99 -4.66 6.98 -5 8 C-5.66 8 -6.32 8 -7 8 C-7 8.66 -7 9.32 -7 10 C-6.34 10.33 -5.68 10.66 -5 11 C-6.32 11.33 -7.64 11.66 -9 12 C-9.33 10.02 -9.66 8.04 -10 6 C-8.3811004 4.96951963 -6.75467511 3.95085322 -5.125 2.9375 C-4.22007813 2.36902344 -3.31515625 1.80054688 -2.3828125 1.21484375 C-1.20332031 0.61349609 -1.20332031 0.61349609 0 0 Z " fill="#DEE3EF" transform="translate(35,8)"/>
<path d="M0 0 C0.67095703 0.58007812 0.67095703 0.58007812 1.35546875 1.171875 C2.6127729 2.25492591 3.87337222 3.33415971 5.13671875 4.41015625 C6.6001332 5.65881386 8.05224748 6.92071655 9.5 8.1875 C12.5458579 10.39574698 15.50192223 11.6282048 19 13 C17.02 13.99 17.02 13.99 15 15 C3.59778598 7.31734317 3.59778598 7.31734317 0 3 C0 2.01 0 1.02 0 0 Z " fill="#4F69AE" transform="translate(17,64)"/>
<path d="M0 0 C3 5.625 3 5.625 3 9 C1.02 9.66 -0.96 10.32 -3 11 C-2.67 10.01 -2.34 9.02 -2 8 C-1.34 7.67 -0.68 7.34 0 7 C-2.78918149 5.89459074 -2.78918149 5.89459074 -5 6 C-5.66 4.68 -6.32 3.36 -7 2 C-2.25 0 -2.25 0 0 0 Z " fill="#EEF0F6" transform="translate(80,23)"/>
<path d="M0 0 C0.96808594 -0.00257812 1.93617187 -0.00515625 2.93359375 -0.0078125 C5.5625 0.125 5.5625 0.125 8.5625 1.125 C8.2325 2.115 7.9025 3.105 7.5625 4.125 C5.24940295 4.01158363 2.93699815 3.88396193 0.625 3.75 C-1.30666016 3.64558594 -1.30666016 3.64558594 -3.27734375 3.5390625 C-4.84162109 3.33410156 -4.84162109 3.33410156 -6.4375 3.125 C-6.7675 2.465 -7.0975 1.805 -7.4375 1.125 C-4.84233479 -0.17258261 -2.89566973 -0.00769102 0 0 Z " fill="#2E4C9E" transform="translate(64.4375,55.875)"/>
<path d="M0 0 C0.97066406 -0.01417969 1.94132812 -0.02835938 2.94140625 -0.04296875 C5.4375 0.1875 5.4375 0.1875 7.4375 2.1875 C5.49659174 4.12840826 1.96456098 3.58669435 -0.625 3.75 C-1.91535156 3.83378906 -3.20570312 3.91757812 -4.53515625 4.00390625 C-5.53417969 4.06449219 -6.53320312 4.12507813 -7.5625 4.1875 C-7.8925 3.1975 -8.2225 2.2075 -8.5625 1.1875 C-5.47951949 0.15983983 -3.23119574 0.02151262 0 0 Z " fill="#28489C" transform="translate(32.5625,55.8125)"/>
<path d="M0 0 C5.28 0 10.56 0 16 0 C16 0.66 16 1.32 16 2 C13.26922124 3.36538938 11.04439633 3.13231826 8 3.125 C6.39125 3.12886719 6.39125 3.12886719 4.75 3.1328125 C2 3 2 3 0 2 C0 1.34 0 0.68 0 0 Z " fill="#3956A3" transform="translate(40,25)"/>
<path d="M0 0 C0.5465625 0.14179688 1.093125 0.28359375 1.65625 0.4296875 C4.64978337 1.15811395 7.42124562 1.13206136 10.5 1.125 C11.6240625 1.12757812 12.748125 1.13015625 13.90625 1.1328125 C16.4720699 1.02266367 18.56266427 0.75270662 21 0 C21 0.99 21 1.98 21 3 C19.02 3.99 19.02 3.99 17 5 C16.67 4.67 16.34 4.34 16 4 C13.98405418 3.76572222 11.961526 3.58663876 9.9375 3.4375 C8.83277344 3.35371094 7.72804688 3.26992188 6.58984375 3.18359375 C5.73519531 3.12300781 4.88054688 3.06242187 4 3 C3.67 3.66 3.34 4.32 3 5 C1.68 3.68 0.36 2.36 -1 1 C-0.67 0.67 -0.34 0.34 0 0 Z " fill="#D6DCEB" transform="translate(38,18)"/>
<path d="M0 0 C0.33 2.31 0.66 4.62 1 7 C-0.32 7 -1.64 7 -3 7 C-3.66 5.68 -4.32 4.36 -5 3 C-7.31 3 -9.62 3 -12 3 C-12 2.34 -12 1.68 -12 1 C-10.37512529 0.83211627 -8.75009558 0.66573213 -7.125 0.5 C-6.22007813 0.4071875 -5.31515625 0.314375 -4.3828125 0.21875 C-2 0 -2 0 0 0 Z " fill="#4E67AD" transform="translate(57,29)"/>
<path d="M0 0 C0.33 0.99 0.66 1.98 1 3 C1.99 3.33 2.98 3.66 4 4 C4.66 4.33 5.32 4.66 6 5 C6 3.35 6 1.7 6 0 C6.99 0.66 7.98 1.32 9 2 C9 3.32 9 4.64 9 6 C7.04174127 6.02694851 5.08337774 6.04637218 3.125 6.0625 C2.03445312 6.07410156 0.94390625 6.08570313 -0.1796875 6.09765625 C-3 6 -3 6 -5 5 C-5 3.68 -5 2.36 -5 1 C-3.02 1.99 -3.02 1.99 -1 3 C-0.67 2.01 -0.34 1.02 0 0 Z " fill="#8B9BC9" transform="translate(43,8)"/>
<path d="M0 0 C2.97 0.99 5.94 1.98 9 3 C9.33 4.65 9.66 6.3 10 8 C7.03 7.67 4.06 7.34 1 7 C1 6.01 1 5.02 1 4 C2.32 4 3.64 4 5 4 C2.525 3.01 2.525 3.01 0 2 C0 1.34 0 0.68 0 0 Z " fill="#425DA7" transform="translate(66,24)"/>
<path d="M0 0 C3.96 0 7.92 0 12 0 C12.33 0.99 12.66 1.98 13 3 C8.71 3 4.42 3 0 3 C0 2.01 0 1.02 0 0 Z " fill="#3654A2" transform="translate(42,21)"/>
<path d="M0 0 C-0.33 0.99 -0.66 1.98 -1 3 C-0.67 3.33 -0.34 3.66 0 4 C-0.99 4.495 -0.99 4.495 -2 5 C-1.67 6.32 -1.34 7.64 -1 9 C-1.66 9 -2.32 9 -3 9 C-3.33 8.01 -3.66 7.02 -4 6 C-4.99 6.495 -4.99 6.495 -6 7 C-6.33 5.02 -6.66 3.04 -7 1 C-3.375 -1.125 -3.375 -1.125 0 0 Z " fill="#C4CCE3" transform="translate(44,60)"/>
<path d="M0 0 C2.10409639 -0.02701408 4.20829178 -0.04640223 6.3125 -0.0625 C7.48425781 -0.07410156 8.65601562 -0.08570313 9.86328125 -0.09765625 C13 0 13 0 16 1 C15.67 1.99 15.34 2.98 15 4 C13.24908981 3.91245449 11.49920449 3.80426627 9.75 3.6875 C8.77546875 3.62949219 7.8009375 3.57148437 6.796875 3.51171875 C3.74658389 2.95363476 2.29288724 2.03630224 0 0 Z " fill="#3250A0" transform="translate(59,52)"/>
<path d="M0 0 C0.93423645 3.01031744 1.04449911 3.86650268 0 7 C-0.99 7.495 -0.99 7.495 -2 8 C-1.34 8.66 -0.68 9.32 0 10 C-1.875 10.625 -1.875 10.625 -4 11 C-4.66 10.34 -5.32 9.68 -6 9 C-5.88679697 5.71711224 -4.71715137 4.69645513 -2.4375 2.25 C-1.633125 1.5075 -0.82875 0.765 0 0 Z " fill="#ECEEF5" transform="translate(24,15)"/>
<path d="M0 0 C3.82946843 1.45255699 5.12050295 3.42895561 7 7 C5.0625 7.5625 5.0625 7.5625 3 8 C2.67 7.67 2.34 7.34 2 7 C1.01 7 0.02 7 -1 7 C-1.33 6.34 -1.66 5.68 -2 5 C-1.34 5 -0.68 5 0 5 C0 3.68 0 2.36 0 1 C0 0.67 0 0.34 0 0 Z " fill="#E1E5F0" transform="translate(72,16)"/>
<path d="M0 0 C1.22589844 0.01353516 1.22589844 0.01353516 2.4765625 0.02734375 C3.41628906 0.04474609 3.41628906 0.04474609 4.375 0.0625 C4.375 1.0525 4.375 2.0425 4.375 3.0625 C-0.08 3.5575 -0.08 3.5575 -4.625 4.0625 C-5.285 3.0725 -5.945 2.0825 -6.625 1.0625 C-4.21954362 -0.14022819 -2.67503047 -0.03821472 0 0 Z " fill="#304E9F" transform="translate(32.625,59.9375)"/>
<path d="M0 0 C1.98 0.495 1.98 0.495 4 1 C4.33 3.31 4.66 5.62 5 8 C3.02 7.34 1.04 6.68 -1 6 C-0.67 4.02 -0.34 2.04 0 0 Z " fill="#C6CEE4" transform="translate(40,44)"/>
<path d="M0 0 C0.33 0.99 0.66 1.98 1 3 C1.99 2.67 2.98 2.34 4 2 C6.1875 3.4375 6.1875 3.4375 8 5 C7.01 5.66 6.02 6.32 5 7 C5 7.33 5 7.66 5 8 C3.35 8 1.7 8 0 8 C0 7.01 0 6.02 0 5 C-0.185625 4.29875 -0.37125 3.5975 -0.5625 2.875 C-0.706875 2.25625 -0.85125 1.6375 -1 1 C-0.67 0.67 -0.34 0.34 0 0 Z " fill="#8597C6" transform="translate(33,11)"/>
<path d="M0 0 C0 2.31 0 4.62 0 7 C-0.66 7 -1.32 7 -2 7 C-2 6.34 -2 5.68 -2 5 C-3.32 4.67 -4.64 4.34 -6 4 C-6 3.01 -6 2.02 -6 1 C-4 0 -4 0 0 0 Z " fill="#94A3CD" transform="translate(48,64)"/>
<path d="M0 0 C1.45823212 -0.0270043 2.91660675 -0.04639787 4.375 -0.0625 C5.18710938 -0.07410156 5.99921875 -0.08570313 6.8359375 -0.09765625 C9 0 9 0 11 1 C10.67 1.99 10.34 2.98 10 4 C7.03 3.67 4.06 3.34 1 3 C0.67 2.01 0.34 1.02 0 0 Z " fill="#2F4E9F" transform="translate(59,60)"/>
<path d="M0 0 C7.42857143 -0.28571429 7.42857143 -0.28571429 11 2 C10.67 2.66 10.34 3.32 10 4 C6.37 3.67 2.74 3.34 -1 3 C-0.67 2.01 -0.34 1.02 0 0 Z " fill="#3754A2" transform="translate(65,32)"/>
<path d="M0 0 C0.66 0.99 1.32 1.98 2 3 C-0.64 6.63 -3.28 10.26 -6 14 C-6.66 13.34 -7.32 12.68 -8 12 C-7.59007813 11.46890625 -7.18015625 10.9378125 -6.7578125 10.390625 C-6.21898438 9.68421875 -5.68015625 8.9778125 -5.125 8.25 C-4.59132813 7.55390625 -4.05765625 6.8578125 -3.5078125 6.140625 C-2.10761086 4.15277397 -1.02144735 2.20156614 0 0 Z " fill="#4963AB" transform="translate(82,57)"/>
<path d="M0 0 C0.33 1.32 0.66 2.64 1 4 C3.97 4 6.94 4 10 4 C10 4.33 10 4.66 10 5 C8.02 5.33 6.04 5.66 4 6 C4 6.66 4 7.32 4 8 C0.59679258 6.98823563 -0.75725331 6.35156418 -2.8125 3.375 C-3.204375 2.59125 -3.59625 1.8075 -4 1 C-2.68 0.67 -1.36 0.34 0 0 Z " fill="#97A5CE" transform="translate(27,59)"/>
<path d="M0 0 C4.8 2.46153846 4.8 2.46153846 5.8125 5.1875 C5.874375 5.785625 5.93625 6.38375 6 7 C5.34 7 4.68 7 4 7 C4 7.66 4 8.32 4 9 C2.0625 8.6875 2.0625 8.6875 0 8 C-0.33 7.01 -0.66 6.02 -1 5 C-0.34 4.34 0.32 3.68 1 3 C0.34 2.34 -0.32 1.68 -1 1 C-0.67 0.67 -0.34 0.34 0 0 Z " fill="#C5CDE3" transform="translate(68,12)"/>
<path d="M0 0 C2.33094534 0.3496418 4.66404762 0.68554487 7 1 C7 1.33 7 1.66 7 2 C2.05 2.33 -2.9 2.66 -8 3 C-8.33 2.01 -8.66 1.02 -9 0 C-5.53677374 -0.86580656 -3.39865929 -0.99960567 0 0 Z " fill="#3855A3" transform="translate(63,37)"/>
<path d="M0 0 C0.66 0.99 1.32 1.98 2 3 C-3.94 3.495 -3.94 3.495 -10 4 C-9.67 3.01 -9.34 2.02 -9 1 C-5.73842267 -0.08719244 -3.41589896 -0.29071481 0 0 Z " fill="#314FA0" transform="translate(31,32)"/>
<path d="M0 0 C2.9375 0.375 2.9375 0.375 6 1 C6.33 1.66 6.66 2.32 7 3 C7.66 3 8.32 3 9 3 C9 3.66 9 4.32 9 5 C7.02 5.66 5.04 6.32 3 7 C3 6.34 3 5.68 3 5 C1.68 4.67 0.36 4.34 -1 4 C-1 3.34 -1 2.68 -1 2 C-0.01 2 0.98 2 2 2 C1.34 1.34 0.68 0.68 0 0 Z " fill="#8596C6" transform="translate(16,28)"/>
<path d="M0 0 C1.99788438 0.34578768 3.99759451 0.68143549 6 1 C6 1.33 6 1.66 6 2 C1.05 2 -3.9 2 -9 2 C-9 1.34 -9 0.68 -9 0 C-5.55245322 -0.86188669 -3.38326212 -1.02523094 0 0 Z " fill="#3452A1" transform="translate(64,41)"/>
<path d="M0 0 C3.63 0.33 7.26 0.66 11 1 C11.33 1.99 11.66 2.98 12 4 C4.5 3.375 4.5 3.375 0 0 Z " fill="#2F4E9F" transform="translate(35,68)"/>
<path d="M0 0 C1.32 0.66 2.64 1.32 4 2 C-0.25565304 6.25565304 -2.0326891 6.4225183 -8 7 C-7.67 6.34 -7.34 5.68 -7 5 C-3.9375 4.375 -3.9375 4.375 -1 4 C-0.67 2.68 -0.34 1.36 0 0 Z " fill="#99A7CF" transform="translate(67,14)"/>
<path d="M0 0 C-2.51699845 2.51699845 -4.57554146 3.10964078 -8 4 C-10.375 3.625 -10.375 3.625 -12 3 C-11.67 2.34 -11.34 1.68 -11 1 C-7.318488 -0.05186057 -3.80944893 -0.08859184 0 0 Z " fill="#2E4C9E" transform="translate(62,68)"/>
<path d="M0 0 C0.33 0 0.66 0 1 0 C1 1.98 1 3.96 1 6 C2.65 6 4.3 6 6 6 C5.67 7.32 5.34 8.64 5 10 C3.125 9.875 3.125 9.875 1 9 C-0.64661571 5.3931275 -1.27162597 3.8148779 0 0 Z " fill="#8395C5" transform="translate(78,41)"/>
<path d="M0 0 C0.99 1.32 1.98 2.64 3 4 C2.01 5.32 1.02 6.64 0 8 C-1.32 7.67 -2.64 7.34 -4 7 C-3.67 6.34 -3.34 5.68 -3 5 C-2.34 5.33 -1.68 5.66 -1 6 C-1 5.34 -1 4.68 -1 4 C-1.66 3.67 -2.32 3.34 -3 3 C-2.01 3 -1.02 3 0 3 C0 2.01 0 1.02 0 0 Z " fill="#92A1CC" transform="translate(25,16)"/>
<path d="M0 0 C-1.16290805 3.48872415 -2.13967609 4.09976864 -5.0625 6.1875 C-5.79597656 6.71730469 -6.52945312 7.24710938 -7.28515625 7.79296875 C-7.85105469 8.19128906 -8.41695312 8.58960938 -9 9 C-9 6 -9 6 -7.5390625 4.39453125 C-6.59160156 3.61142578 -6.59160156 3.61142578 -5.625 2.8125 C-4.68527344 2.01779297 -4.68527344 2.01779297 -3.7265625 1.20703125 C-2 0 -2 0 0 0 Z " fill="#4A64AB" transform="translate(29,10)"/>
<path d="M0 0 C2.33094534 0.3496418 4.66404762 0.68554487 7 1 C7 1.33 7 1.66 7 2 C2.71 2 -1.58 2 -6 2 C-6.33 1.34 -6.66 0.68 -7 0 C-3.67808522 -1.10730493 -3.20546665 -0.8904074 0 0 Z " fill="#3653A2" transform="translate(64,45)"/>
<path d="M0 0 C0.90105469 0.19464844 1.80210938 0.38929687 2.73046875 0.58984375 C3.41753906 0.74582031 4.10460938 0.90179688 4.8125 1.0625 C4.8125 1.3925 4.8125 1.7225 4.8125 2.0625 C-1.6225 2.5575 -1.6225 2.5575 -8.1875 3.0625 C-8.1875 2.0725 -8.1875 1.0825 -8.1875 0.0625 C-4.80475734 -1.06508089 -3.41971777 -0.75500262 0 0 Z " fill="#3553A2" transform="translate(28.1875,44.9375)"/>
<path d="M0 0 C0.33 0.99 0.66 1.98 1 3 C0.01 4.485 0.01 4.485 -1 6 C-1.33 6.66 -1.66 7.32 -2 8 C-3.5 6.625 -3.5 6.625 -5 5 C-5 4.34 -5 3.68 -5 3 C-2.5 1.375 -2.5 1.375 0 0 Z " fill="#D7DCEC" transform="translate(19,53)"/>
<path d="M0 0 C0.33 0.66 0.66 1.32 1 2 C5.62 2 10.24 2 15 2 C15 2.33 15 2.66 15 3 C6.585 3.495 6.585 3.495 -2 4 C-1.34 2.68 -0.68 1.36 0 0 Z " fill="#A6B3D5" transform="translate(57,49)"/>
<path d="M0 0 C0 0.66 0 1.32 0 2 C-3.3 2.33 -6.6 2.66 -10 3 C-10 2.34 -10 1.68 -10 1 C-6.78548731 -0.60725635 -3.56387464 -0.05748185 0 0 Z " fill="#28479C" transform="translate(68,48)"/>
<path d="M0 0 C0.99 0.33 1.98 0.66 3 1 C3 2.32 3 3.64 3 5 C1.35 4.67 -0.3 4.34 -2 4 C-2 3.01 -2 2.02 -2 1 C-1.34 0.67 -0.68 0.34 0 0 Z " fill="#04268B" transform="translate(137,45)"/>
<path d="M0 0 C0 1.65 0 3.3 0 5 C-1.65 5.33 -3.3 5.66 -5 6 C-5.33 4.68 -5.66 3.36 -6 2 C-1.125 0 -1.125 0 0 0 Z " fill="#F5F6FA" transform="translate(84,33)"/>
<path d="M0 0 C1.32 0.66 2.64 1.32 4 2 C3.67 2.99 3.34 3.98 3 5 C1.68 5 0.36 5 -1 5 C-1.33 4.01 -1.66 3.02 -2 2 C-1.34 1.34 -0.68 0.68 0 0 Z " fill="#04268A" transform="translate(198,18)"/>
<path d="M0 0 C0.99 0.33 1.98 0.66 3 1 C2.34 1 1.68 1 1 1 C1.66 2.65 2.32 4.3 3 6 C1.02 6 -0.96 6 -3 6 C-3 5.01 -3 4.02 -3 3 C-2.34 3 -1.68 3 -1 3 C-0.67 2.01 -0.34 1.02 0 0 Z " fill="#F7F8FB" transform="translate(37,8)"/>
<path d="M0 0 C0 0.66 0 1.32 0 2 C-2.70879335 3.35439668 -5.00933268 3.06501451 -8 3 C-8 2.34 -8 1.68 -8 1 C-5.29120665 -0.35439668 -2.99066732 -0.06501451 0 0 Z " fill="#6D82BB" transform="translate(57,61)"/>
<path d="M0 0 C2.475 0.99 2.475 0.99 5 2 C4.67 2.99 4.34 3.98 4 5 C2.35 5 0.7 5 -1 5 C-0.67 3.35 -0.34 1.7 0 0 Z " fill="#697FBA" transform="translate(50,55)"/>
<path d="M0 0 C2.97 0.495 2.97 0.495 6 1 C4.68 1.33 3.36 1.66 2 2 C2.66 3.32 3.32 4.64 4 6 C2.68 6 1.36 6 0 6 C0 4.02 0 2.04 0 0 Z " fill="#8B9BC9" transform="translate(77,52)"/>
<path d="M0 0 C0.99 0 1.98 0 3 0 C2.67 1.98 2.34 3.96 2 6 C0.68 6 -0.64 6 -2 6 C-1.34 4.02 -0.68 2.04 0 0 Z " fill="#AFBAD9" transform="translate(53,45)"/>
<path d="M0 0 C1.32 0.66 2.64 1.32 4 2 C3.67 2.99 3.34 3.98 3 5 C1.68 5 0.36 5 -1 5 C-0.67 3.35 -0.34 1.7 0 0 Z " fill="#04268B" transform="translate(251,45)"/>
<path d="M0 0 C1.65 0 3.3 0 5 0 C4.67 1.32 4.34 2.64 4 4 C3.34 4 2.68 4 2 4 C1.34 4.99 0.68 5.98 0 7 C0 4.69 0 2.38 0 0 Z " fill="#F8F9FB" transform="translate(12,43)"/>
<path d="M0 0 C2.31 0.33 4.62 0.66 7 1 C6.67 1.66 6.34 2.32 6 3 C3.36 3 0.72 3 -2 3 C-1.34 2.01 -0.68 1.02 0 0 Z " fill="#3250A0" transform="translate(33,56)"/>
<path d="M0 0 C1.98 0.66 3.96 1.32 6 2 C5.67 2.66 5.34 3.32 5 4 C2.4375 4.625 2.4375 4.625 0 5 C0 3.35 0 1.7 0 0 Z " fill="#EEF0F6" transform="translate(12,36)"/>
<path d="M0 0 C0 0.99 0 1.98 0 3 C-2.64 3.33 -5.28 3.66 -8 4 C-7.67 3.01 -7.34 2.02 -7 1 C-4.52260646 0.09162237 -2.66420516 0 0 0 Z " fill="#3351A1" transform="translate(30,28)"/>
<path d="M0 0 C1.485 0.99 1.485 0.99 3 2 C2.67 3.98 2.34 5.96 2 8 C1.34 7.67 0.68 7.34 0 7 C0 4.69 0 2.38 0 0 Z " fill="#F0F2F8" transform="translate(57,59)"/>
<path d="M0 0 C0 1.32 0 2.64 0 4 C-0.66 4 -1.32 4 -2 4 C-2.33 4.66 -2.66 5.32 -3 6 C-3.33 4.35 -3.66 2.7 -4 1 C-2 0 -2 0 0 0 Z " fill="#7D90C2" transform="translate(53,65)"/>
<path d="M0 0 C0.66 0 1.32 0 2 0 C2 1.98 2 3.96 2 6 C1.01 6.495 1.01 6.495 0 7 C-0.38133299 5.0085944 -0.71325582 3.00720923 -1 1 C-0.67 0.67 -0.34 0.34 0 0 Z " fill="#F6F7FA" transform="translate(38,60)"/>
<path d="M0 0 C0.33 0 0.66 0 1 0 C1 5.61 1 11.22 1 17 C0.67 17 0.34 17 0 17 C0 11.39 0 5.78 0 0 Z " fill="#082A8B" transform="translate(238,20)"/>
<path d="M0 0 C3.3 0 6.6 0 10 0 C10 0.33 10 0.66 10 1 C7.03 1.66 4.06 2.32 1 3 C0.67 2.01 0.34 1.02 0 0 Z " fill="#314FA0" transform="translate(51,17)"/>
<path d="M0 0 C0.66 0.33 1.32 0.66 2 1 C2 2.32 2 3.64 2 5 C2.66 5.33 3.32 5.66 4 6 C2.68 6.33 1.36 6.66 0 7 C-0.38133299 5.0085944 -0.71325582 3.00720923 -1 1 C-0.67 0.67 -0.34 0.34 0 0 Z " fill="#C9D0E5" transform="translate(26,13)"/>
<path d="M0 0 C0.33 0 0.66 0 1 0 C1 4.29 1 8.58 1 13 C0.67 13 0.34 13 0 13 C0 8.71 0 4.42 0 0 Z " fill="#06298C" transform="translate(271,51)"/>
<path d="M0 0 C0.33 0 0.66 0 1 0 C1 4.29 1 8.58 1 13 C0.67 13 0.34 13 0 13 C0 8.71 0 4.42 0 0 Z " fill="#2B4B9E" transform="translate(88,37)"/>
<path d="M0 0 C0.33 0 0.66 0 1 0 C1 4.29 1 8.58 1 13 C0.67 13 0.34 13 0 13 C0 8.71 0 4.42 0 0 Z " fill="#07278B" transform="translate(118,21)"/>
<path d="M0 0 C0.66 0 1.32 0 2 0 C2 2.97 2 5.94 2 9 C1.67 9 1.34 9 1 9 C0.67 6.03 0.34 3.06 0 0 Z " fill="#05278B" transform="translate(225,55)"/>
<path d="M0 0 C0.33 0 0.66 0 1 0 C1 3.63 1 7.26 1 11 C0.67 11 0.34 11 0 11 C0 7.37 0 3.74 0 0 Z " fill="#08298B" transform="translate(125,21)"/>
<path d="M0 0 C2.97 0 5.94 0 9 0 C9 0.33 9 0.66 9 1 C6.03 1 3.06 1 0 1 C0 0.67 0 0.34 0 0 Z " fill="#2C4A9E" transform="translate(44,83)"/>
<path d="M0 0 C0.66 1.32 1.32 2.64 2 4 C1.01 4.495 1.01 4.495 0 5 C0 3.35 0 1.7 0 0 Z " fill="#04278B" transform="translate(165,59)"/>
<path d="M0 0 C0.33 0 0.66 0 1 0 C1 2.31 1 4.62 1 7 C0.67 7 0.34 7 0 7 C0 4.69 0 2.38 0 0 Z " fill="#06278B" transform="translate(182,54)"/>
<path d="M0 0 C0.33 0 0.66 0 1 0 C1 1.98 1 3.96 1 6 C0.34 5.34 -0.32 4.68 -1 4 C-0.625 1.875 -0.625 1.875 0 0 Z " fill="#05278B" transform="translate(158,20)"/>
<path d="M0 0 C1.65 0 3.3 0 5 0 C5 0.33 5 0.66 5 1 C3.35 1 1.7 1 0 1 C0 0.67 0 0.34 0 0 Z " fill="#05268B" transform="translate(129,57)"/>
<path d="M0 0 C0.66 1.32 1.32 2.64 2 4 C1.34 4 0.68 4 0 4 C0 2.68 0 1.36 0 0 Z " fill="#08298B" transform="translate(126,56)"/>
<path d="M0 0 C0.33 0 0.66 0 1 0 C1 1.65 1 3.3 1 5 C0.67 5 0.34 5 0 5 C0 3.35 0 1.7 0 0 Z " fill="#2D4C9F" transform="translate(8,46)"/>
<path d="M0 0 C1.65 0 3.3 0 5 0 C5 0.33 5 0.66 5 1 C3.35 1 1.7 1 0 1 C0 0.67 0 0.34 0 0 Z " fill="#04268B" transform="translate(96,45)"/>
<path d="M0 0 C0.33 0 0.66 0 1 0 C1 1.65 1 3.3 1 5 C0.67 5 0.34 5 0 5 C0 3.35 0 1.7 0 0 Z " fill="#2B4B9E" transform="translate(8,35)"/>
<path d="M0 0 C0.66 1.32 1.32 2.64 2 4 C1.34 4 0.68 4 0 4 C0 2.68 0 1.36 0 0 Z " fill="#08298B" transform="translate(208,29)"/>
<path d="M0 0 C1.65 0 3.3 0 5 0 C5 0.33 5 0.66 5 1 C3.35 1 1.7 1 0 1 C0 0.67 0 0.34 0 0 Z " fill="#2A4A9D" transform="translate(53,3)"/>
<path d="M0 0 C1.65 0 3.3 0 5 0 C5 0.33 5 0.66 5 1 C3.35 1 1.7 1 0 1 C0 0.67 0 0.34 0 0 Z " fill="#2A499D" transform="translate(46,2)"/>
<path d="M0 0 C4 1 4 1 4 1 Z " fill="#2A499F" transform="translate(55,82)"/>
<path d="M0 0 C4 1 4 1 4 1 Z " fill="#29479C" transform="translate(38,82)"/>
<path d="M0 0 C4 1 4 1 4 1 Z " fill="#04268B" transform="translate(260,66)"/>
<path d="M0 0 C4 1 4 1 4 1 Z " fill="#04268B" transform="translate(238,66)"/>
<path d="M0 0 C4 1 4 1 4 1 Z " fill="#04268B" transform="translate(189,66)"/>
<path d="M0 0 C4 1 4 1 4 1 Z " fill="#04268B" transform="translate(146,66)"/>
<path d="M0 0 C4 1 4 1 4 1 Z " fill="#04268B" transform="translate(111,66)"/>
<path d="M0 0 C0.66 0 1.32 0 2 0 C1.67 0.99 1.34 1.98 1 3 C0.67 2.01 0.34 1.02 0 0 Z " fill="#06288C" transform="translate(263,56)"/>
<path d="M0 0 C0.66 0 1.32 0 2 0 C2 0.66 2 1.32 2 2 C1.34 2 0.68 2 0 2 C0 1.34 0 0.68 0 0 Z " fill="#05278B" transform="translate(170,52)"/>
<path d="M0 0 C4 1 4 1 4 1 Z " fill="#05268B" transform="translate(186,45)"/>
<path d="M0 0 C4 1 4 1 4 1 Z " fill="#04268B" transform="translate(171,39)"/>
<path d="M0 0 C4 1 4 1 4 1 Z " fill="#04268B" transform="translate(150,39)"/>
<path d="M0 0 C4 1 4 1 4 1 Z " fill="#04268B" transform="translate(125,39)"/>
<path d="M0 0 C4 1 4 1 4 1 Z " fill="#05268B" transform="translate(211,30)"/>
<path d="M0 0 C0.99 0.495 0.99 0.495 2 1 C1.34 1.66 0.68 2.32 0 3 C0 2.01 0 1.02 0 0 Z " fill="#05278B" transform="translate(142,29)"/>
<path d="M0 0 C1 4 1 4 1 4 Z " fill="#06298B" transform="translate(231,20)"/>
<path d="M0 0 C4 1 4 1 4 1 Z " fill="#04278B" transform="translate(120,18)"/>
<path d="M0 0 C4 1 4 1 4 1 Z " fill="#2C4B9E" transform="translate(39,3)"/>
<path d="M0 0 C3 1 3 1 3 1 Z " fill="#2D4C9D" transform="translate(59,81)"/>
<path d="M0 0 C3 1 3 1 3 1 Z " fill="#03268A" transform="translate(167,72)"/>
<path d="M0 0 C3 1 3 1 3 1 Z " fill="#04268B" transform="translate(126,66)"/>
<path d="M0 0 C3 1 3 1 3 1 Z " fill="#04268B" transform="translate(97,66)"/>
<path d="M0 0 C0.33 0.66 0.66 1.32 1 2 C0.34 1.67 -0.32 1.34 -1 1 C-0.67 0.67 -0.34 0.34 0 0 Z " fill="#05288A" transform="translate(155,61)"/>
<path d="M0 0 C0.33 0.66 0.66 1.32 1 2 C0.34 1.67 -0.32 1.34 -1 1 C-0.67 0.67 -0.34 0.34 0 0 Z " fill="#06278B" transform="translate(120,61)"/>
<path d="M0 0 C0.33 0.66 0.66 1.32 1 2 C0.34 1.67 -0.32 1.34 -1 1 C-0.67 0.67 -0.34 0.34 0 0 Z " fill="#05278B" transform="translate(191,58)"/>
<path d="" fill="#06288B" transform="translate(0,0)"/>
<path d="" fill="#05278B" transform="translate(0,0)"/>
<path d="" fill="#06288B" transform="translate(0,0)"/>
<path d="" fill="#062A8C" transform="translate(0,0)"/>
<path d="M0 0 C0.66 0 1.32 0 2 0 C1.67 0.66 1.34 1.32 1 2 C0.67 1.34 0.34 0.68 0 0 Z " fill="#05278A" transform="translate(103,54)"/>
<path d="" fill="#2C4B9F" transform="translate(0,0)"/>
<path d="M0 0 C0.66 0 1.32 0 2 0 C1.67 0.66 1.34 1.32 1 2 C0.67 1.34 0.34 0.68 0 0 Z " fill="#06278B" transform="translate(232,52)"/>
<path d="M0 0 C0.99 0.495 0.99 0.495 2 1 C1.01 1.495 1.01 1.495 0 2 C0 1.34 0 0.68 0 0 Z " fill="#06278A" transform="translate(141,51)"/>
<path d="M0 0 C0.66 0 1.32 0 2 0 C1.67 0.66 1.34 1.32 1 2 C0.67 1.34 0.34 0.68 0 0 Z " fill="#05278B" transform="translate(119,52)"/>
<path d="" fill="#04268B" transform="translate(0,0)"/>
<path d="" fill="#2B4B9E" transform="translate(0,0)"/>
<path d="M0 0 C0.99 0.495 0.99 0.495 2 1 C1.01 1.495 1.01 1.495 0 2 C0 1.34 0 0.68 0 0 Z " fill="#05288B" transform="translate(106,51)"/>
<path d="" fill="#05278B" transform="translate(0,0)"/>
<path d="" fill="#07288B" transform="translate(0,0)"/>
<path d="" fill="#05278B" transform="translate(0,0)"/>
<path d="M0 0 C3 1 3 1 3 1 Z " fill="#04278B" transform="translate(213,45)"/>
<path d="M0 0 C3 1 3 1 3 1 Z " fill="#04268A" transform="translate(244,44)"/>
<path d="M0 0 C3 1 3 1 3 1 Z " fill="#05268B" transform="translate(221,39)"/>
<path d="M0 0 C3 1 3 1 3 1 Z " fill="#04268B" transform="translate(208,39)"/>
<path d="M0 0 C0.33 0.66 0.66 1.32 1 2 C0.34 1.67 -0.32 1.34 -1 1 C-0.67 0.67 -0.34 0.34 0 0 Z " fill="#05278B" transform="translate(158,35)"/>
<path d="" fill="#04278B" transform="translate(0,0)"/>
<path d="" fill="#2B4A9F" transform="translate(0,0)"/>
<path d="" fill="#2C4B9F" transform="translate(0,0)"/>
<path d="M0 0 C0.33 0.66 0.66 1.32 1 2 C0.34 1.67 -0.32 1.34 -1 1 C-0.67 0.67 -0.34 0.34 0 0 Z " fill="#05278B" transform="translate(224,31)"/>
<path d="M0 0 C0.33 0.66 0.66 1.32 1 2 C0.34 1.67 -0.32 1.34 -1 1 C-0.67 0.67 -0.34 0.34 0 0 Z " fill="#05278B" transform="translate(188,31)"/>
<path d="M0 0 C0.33 0.66 0.66 1.32 1 2 C0.34 1.67 -0.32 1.34 -1 1 C-0.67 0.67 -0.34 0.34 0 0 Z " fill="#05278B" transform="translate(173,31)"/>
<path d="M0 0 C0.33 0.66 0.66 1.32 1 2 C0.34 1.67 -0.32 1.34 -1 1 C-0.67 0.67 -0.34 0.34 0 0 Z " fill="#06278B" transform="translate(152,31)"/>
<path d="" fill="#05278B" transform="translate(0,0)"/>
<path d="" fill="#05278B" transform="translate(0,0)"/>
<path d="" fill="#06288B" transform="translate(0,0)"/>
<path d="" fill="#05278B" transform="translate(0,0)"/>
<path d="" fill="#28489E" transform="translate(0,0)"/>
<path d="" fill="#05278B" transform="translate(0,0)"/>
<path d="M0 0 C3 1 3 1 3 1 Z " fill="#04278A" transform="translate(130,18)"/>
<path d="M0 0 C3 1 3 1 3 1 Z " fill="#04268A" transform="translate(234,17)"/>
<path d="M0 0 C3 1 3 1 3 1 Z " fill="#05268A" transform="translate(161,17)"/>
<path d="M0 0 C3 1 3 1 3 1 Z " fill="#2C4C9F" transform="translate(58,4)"/>
<path d="M0 0 C2 1 2 1 2 1 Z " fill="#2B4B9E" transform="translate(35,81)"/>
<path d="M0 0 C2 1 2 1 2 1 Z " fill="#2D4EA1" transform="translate(62,80)"/>
<path d="M0 0 C2 1 2 1 2 1 Z " fill="#2F4FA0" transform="translate(33,80)"/>
<path d="M0 0 C2 1 2 1 2 1 Z " fill="#3151A0" transform="translate(64,79)"/>
<path d="M0 0 C2 1 2 1 2 1 Z " fill="#2C4C9E" transform="translate(66,78)"/>
<path d="M0 0 C2 1 2 1 2 1 Z " fill="#2C4DA0" transform="translate(68,77)"/>
<path d="" fill="#05288B" transform="translate(0,0)"/>
<path d="" fill="#05278B" transform="translate(0,0)"/>
<path d="" fill="#05278B" transform="translate(0,0)"/>
<path d="" fill="#2A499E" transform="translate(0,0)"/>
<path d="" fill="#2B499E" transform="translate(0,0)"/>
<path d="M0 0 C2 1 2 1 2 1 Z " fill="#06278C" transform="translate(264,65)"/>
<path d="M0 0 C2 1 2 1 2 1 Z " fill="#05288A" transform="translate(258,65)"/>
<path d="M0 0 C2 1 2 1 2 1 Z " fill="#06278A" transform="translate(242,65)"/>
<path d="M0 0 C2 1 2 1 2 1 Z " fill="#05288C" transform="translate(236,65)"/>
<path d="M0 0 C2 1 2 1 2 1 Z " fill="#06278C" transform="translate(193,65)"/>
<path d="" fill="#05278B" transform="translate(0,0)"/>
<path d="M0 0 C2 1 2 1 2 1 Z " fill="#07298C" transform="translate(150,65)"/>
<path d="M0 0 C2 1 2 1 2 1 Z " fill="#05288A" transform="translate(130,65)"/>
<path d="M0 0 C2 1 2 1 2 1 Z " fill="#05268B" transform="translate(123,65)"/>
<path d="M0 0 C2 1 2 1 2 1 Z " fill="#072A8C" transform="translate(115,65)"/>
<path d="M0 0 C2 1 2 1 2 1 Z " fill="#05288B" transform="translate(101,65)"/>
<path d="" fill="#05288B" transform="translate(0,0)"/>
<path d="" fill="#2B4A9C" transform="translate(0,0)"/>
<path d="" fill="#05278B" transform="translate(0,0)"/>
<path d="" fill="#2E4DA0" transform="translate(0,0)"/>
<path d="" fill="#04268A" transform="translate(0,0)"/>
<path d="" fill="#04278B" transform="translate(0,0)"/>
<path d="" fill="#05288B" transform="translate(0,0)"/>
<path d="" fill="#2D4D9F" transform="translate(0,0)"/>
<path d="" fill="#04268C" transform="translate(0,0)"/>
<path d="M0 0 C2 1 2 1 2 1 Z " fill="#06288C" transform="translate(262,59)"/>
<path d="M0 0 C2 1 2 1 2 1 Z " fill="#06288B" transform="translate(240,59)"/>
<path d="" fill="#08288B" transform="translate(0,0)"/>
<path d="M0 0 C2 1 2 1 2 1 Z " fill="#06288B" transform="translate(112,59)"/>
<path d="M0 0 C2 1 2 1 2 1 Z " fill="#07288C" transform="translate(98,59)"/>
<path d="" fill="#2B4B9D" transform="translate(0,0)"/>
<path d="" fill="#2F4DA3" transform="translate(0,0)"/>
<path d="" fill="#05278B" transform="translate(0,0)"/>
<path d="" fill="#06288B" transform="translate(0,0)"/>
<path d="M0 0 C2 1 2 1 2 1 Z " fill="#07288C" transform="translate(93,57)"/>
<path d="" fill="#2B4A9F" transform="translate(0,0)"/>
<path d="" fill="#2D4CA0" transform="translate(0,0)"/>
<path d="" fill="#05268B" transform="translate(0,0)"/>
<path d="" fill="#05288B" transform="translate(0,0)"/>
<path d="" fill="#06278B" transform="translate(0,0)"/>
<path d="M0 0 C2 1 2 1 2 1 Z " fill="#08298B" transform="translate(228,49)"/>
<path d="" fill="#07288B" transform="translate(0,0)"/>
<path d="M0 0 C2 1 2 1 2 1 Z " fill="#04278B" transform="translate(193,49)"/>
<path d="M0 0 C2 1 2 1 2 1 Z " fill="#05278C" transform="translate(187,49)"/>
<path d="M0 0 C2 1 2 1 2 1 Z " fill="#05278A" transform="translate(150,49)"/>
<path d="M0 0 C2 1 2 1 2 1 Z " fill="#05278B" transform="translate(144,49)"/>
<path d="M0 0 C2 1 2 1 2 1 Z " fill="#082B8B" transform="translate(129,49)"/>
<path d="M0 0 C2 1 2 1 2 1 Z " fill="#08278C" transform="translate(124,49)"/>
<path d="M0 0 C2 1 2 1 2 1 Z " fill="#05278B" transform="translate(115,49)"/>
<path d="M0 0 C2 1 2 1 2 1 Z " fill="#05278B" transform="translate(109,49)"/>
<path d="" fill="#04278B" transform="translate(0,0)"/>
<path d="" fill="#05278B" transform="translate(0,0)"/>
<path d="M0 0 C2 1 2 1 2 1 Z " fill="#06288C" transform="translate(94,46)"/>
<path d="M0 0 C2 1 2 1 2 1 Z " fill="#05288A" transform="translate(183,44)"/>
<path d="M0 0 C2 1 2 1 2 1 Z " fill="#04268B" transform="translate(251,43)"/>
<path d="" fill="#05268B" transform="translate(0,0)"/>
<path d="M0 0 C2 1 2 1 2 1 Z " fill="#07298C" transform="translate(219,38)"/>
<path d="M0 0 C2 1 2 1 2 1 Z " fill="#05288A" transform="translate(212,38)"/>
<path d="M0 0 C2 1 2 1 2 1 Z " fill="#05268B" transform="translate(205,38)"/>
<path d="M0 0 C2 1 2 1 2 1 Z " fill="#06278C" transform="translate(175,38)"/>
<path d="M0 0 C2 1 2 1 2 1 Z " fill="#06278C" transform="translate(154,38)"/>
<path d="M0 0 C2 1 2 1 2 1 Z " fill="#06288C" transform="translate(129,38)"/>
<path d="" fill="#082B8D" transform="translate(0,0)"/>
<path d="M0 0 C2 1 2 1 2 1 Z " fill="#06278B" transform="translate(179,35)"/>
<path d="" fill="#072889" transform="translate(0,0)"/>
<path d="" fill="#04268C" transform="translate(0,0)"/>
<path d="" fill="#05278B" transform="translate(0,0)"/>
<path d="" fill="#2B4B9E" transform="translate(0,0)"/>
<path d="" fill="#2B4C9F" transform="translate(0,0)"/>
<path d="" fill="#2C4C9F" transform="translate(0,0)"/>
<path d="" fill="#072A8B" transform="translate(0,0)"/>
<path d="" fill="#2D4C9E" transform="translate(0,0)"/>
<path d="" fill="#04278B" transform="translate(0,0)"/>
<path d="" fill="#2C4C9E" transform="translate(0,0)"/>
<path d="" fill="#2C4B9F" transform="translate(0,0)"/>
<path d="M0 0 C2 1 2 1 2 1 Z " fill="#04278A" transform="translate(219,22)"/>
<path d="M0 0 C2 1 2 1 2 1 Z " fill="#082B8B" transform="translate(211,22)"/>
<path d="M0 0 C2 1 2 1 2 1 Z " fill="#08278C" transform="translate(206,22)"/>
<path d="M0 0 C2 1 2 1 2 1 Z " fill="#04278A" transform="translate(183,22)"/>
<path d="M0 0 C2 1 2 1 2 1 Z " fill="#04278B" transform="translate(175,22)"/>
<path d="M0 0 C2 1 2 1 2 1 Z " fill="#05278C" transform="translate(169,22)"/>
<path d="M0 0 C2 1 2 1 2 1 Z " fill="#05268B" transform="translate(154,22)"/>
<path d="M0 0 C2 1 2 1 2 1 Z " fill="#06278B" transform="translate(148,22)"/>
<path d="" fill="#25479D" transform="translate(0,0)"/>
<path d="M0 0 C2 1 2 1 2 1 Z " fill="#04258B" transform="translate(198,16)"/>
<path d="M0 0 C2 1 2 1 2 1 Z " fill="#24459D" transform="translate(73,12)"/>
<path d="M0 0 C2 1 2 1 2 1 Z " fill="#214297" transform="translate(23,11)"/>
<path d="M0 0 C2 1 2 1 2 1 Z " fill="#29499F" transform="translate(69,9)"/>
<path d="M0 0 C2 1 2 1 2 1 Z " fill="#2C4B9D" transform="translate(66,7)"/>
<path d="M0 0 C2 1 2 1 2 1 Z " fill="#2C4C9F" transform="translate(29,7)"/>
<path d="M0 0 C2 1 2 1 2 1 Z " fill="#2B4A9D" transform="translate(64,6)"/>
<path d="M0 0 C2 1 2 1 2 1 Z " fill="#2D4C9E" transform="translate(31,6)"/>
<path d="M0 0 C2 1 2 1 2 1 Z " fill="#3050A1" transform="translate(61,5)"/>
<path d="M0 0 C2 1 2 1 2 1 Z " fill="#2C4B9E" transform="translate(33,5)"/>
<path d="M0 0 C2 1 2 1 2 1 Z " fill="#2B4B9E" transform="translate(36,4)"/>
<path d="" fill="#2B4B9B" transform="translate(0,0)"/>
<path d="" fill="#2C4B9E" transform="translate(0,0)"/>
<path d="" fill="#2D4D9F" transform="translate(0,0)"/>
<path d="" fill="#2E4DA0" transform="translate(0,0)"/>
<path d="" fill="#2D4C9F" transform="translate(0,0)"/>
<path d="" fill="#29489F" transform="translate(0,0)"/>
<path d="" fill="#2F4D9F" transform="translate(0,0)"/>
<path d="" fill="#2D4EA1" transform="translate(0,0)"/>
<path d="" fill="#2E4D9E" transform="translate(0,0)"/>
<path d="" fill="#2F4EA2" transform="translate(0,0)"/>
<path d="" fill="#2C4DA0" transform="translate(0,0)"/>
<path d="" fill="#2F4DA0" transform="translate(0,0)"/>
<path d="" fill="#294B9D" transform="translate(0,0)"/>
<path d="" fill="#2E4DA0" transform="translate(0,0)"/>
<path d="" fill="#27489E" transform="translate(0,0)"/>
<path d="" fill="#2F4D9E" transform="translate(0,0)"/>
<path d="" fill="#28489E" transform="translate(0,0)"/>
<path d="" fill="#05278B" transform="translate(0,0)"/>
<path d="" fill="#2F4F9E" transform="translate(0,0)"/>
<path d="" fill="#2B4B9D" transform="translate(0,0)"/>
<path d="" fill="#314FA2" transform="translate(0,0)"/>
<path d="" fill="#2F4FA0" transform="translate(0,0)"/>
<path d="" fill="#3150A1" transform="translate(0,0)"/>
<path d="" fill="#05278B" transform="translate(0,0)"/>
<path d="" fill="#05278B" transform="translate(0,0)"/>
<path d="" fill="#06278B" transform="translate(0,0)"/>
<path d="" fill="#05278B" transform="translate(0,0)"/>
<path d="" fill="#05288A" transform="translate(0,0)"/>
<path d="" fill="#05278B" transform="translate(0,0)"/>
<path d="" fill="#06278C" transform="translate(0,0)"/>
<path d="" fill="#2E4F9E" transform="translate(0,0)"/>
<path d="" fill="#04278A" transform="translate(0,0)"/>
<path d="" fill="#05288B" transform="translate(0,0)"/>
<path d="" fill="#06298B" transform="translate(0,0)"/>
<path d="" fill="#04278B" transform="translate(0,0)"/>
<path d="" fill="#07288C" transform="translate(0,0)"/>
<path d="" fill="#06288B" transform="translate(0,0)"/>
<path d="" fill="#07298B" transform="translate(0,0)"/>
<path d="" fill="#04278B" transform="translate(0,0)"/>
<path d="" fill="#04278B" transform="translate(0,0)"/>
<path d="" fill="#07298D" transform="translate(0,0)"/>
<path d="" fill="#072B8D" transform="translate(0,0)"/>
<path d="" fill="#06288B" transform="translate(0,0)"/>
<path d="" fill="#04278B" transform="translate(0,0)"/>
<path d="" fill="#2E4FA1" transform="translate(0,0)"/>
<path d="" fill="#05268B" transform="translate(0,0)"/>
<path d="" fill="#05278B" transform="translate(0,0)"/>
<path d="" fill="#082A8D" transform="translate(0,0)"/>
<path d="" fill="#05268B" transform="translate(0,0)"/>
<path d="" fill="#07298A" transform="translate(0,0)"/>
<path d="" fill="#0A298B" transform="translate(0,0)"/>
<path d="" fill="#05268B" transform="translate(0,0)"/>
<path d="" fill="#05268B" transform="translate(0,0)"/>
<path d="" fill="#04268B" transform="translate(0,0)"/>
<path d="" fill="#06288A" transform="translate(0,0)"/>
<path d="" fill="#04278A" transform="translate(0,0)"/>
<path d="" fill="#06288C" transform="translate(0,0)"/>
<path d="" fill="#05268B" transform="translate(0,0)"/>
<path d="" fill="#2D4DA0" transform="translate(0,0)"/>
<path d="" fill="#08278C" transform="translate(0,0)"/>
<path d="" fill="#2E4DA2" transform="translate(0,0)"/>
<path d="" fill="#05268B" transform="translate(0,0)"/>
<path d="" fill="#04278B" transform="translate(0,0)"/>
<path d="" fill="#04278C" transform="translate(0,0)"/>
<path d="" fill="#04278B" transform="translate(0,0)"/>
<path d="" fill="#05278B" transform="translate(0,0)"/>
<path d="" fill="#05278C" transform="translate(0,0)"/>
<path d="" fill="#05278B" transform="translate(0,0)"/>
<path d="" fill="#05278B" transform="translate(0,0)"/>
<path d="" fill="#09288F" transform="translate(0,0)"/>
<path d="" fill="#05278C" transform="translate(0,0)"/>
<path d="" fill="#04278A" transform="translate(0,0)"/>
<path d="" fill="#04278B" transform="translate(0,0)"/>
<path d="" fill="#05288B" transform="translate(0,0)"/>
<path d="" fill="#06288B" transform="translate(0,0)"/>
<path d="" fill="#04268B" transform="translate(0,0)"/>
<path d="" fill="#05278B" transform="translate(0,0)"/>
<path d="" fill="#06278C" transform="translate(0,0)"/>
<path d="" fill="#04268A" transform="translate(0,0)"/>
<path d="" fill="#05278B" transform="translate(0,0)"/>
<path d="" fill="#04268A" transform="translate(0,0)"/>
<path d="" fill="#07288B" transform="translate(0,0)"/>
<path d="" fill="#05288B" transform="translate(0,0)"/>
<path d="" fill="#06288B" transform="translate(0,0)"/>
<path d="" fill="#06278B" transform="translate(0,0)"/>
<path d="" fill="#05288B" transform="translate(0,0)"/>
<path d="" fill="#04258C" transform="translate(0,0)"/>
<path d="" fill="#04278B" transform="translate(0,0)"/>
<path d="" fill="#05268B" transform="translate(0,0)"/>
<path d="" fill="#04278B" transform="translate(0,0)"/>
<path d="" fill="#06288B" transform="translate(0,0)"/>
<path d="" fill="#05278B" transform="translate(0,0)"/>
<path d="" fill="#06288B" transform="translate(0,0)"/>
<path d="" fill="#06278B" transform="translate(0,0)"/>
<path d="" fill="#06278C" transform="translate(0,0)"/>
<path d="" fill="#04288F" transform="translate(0,0)"/>
<path d="" fill="#05278B" transform="translate(0,0)"/>
<path d="" fill="#05278B" transform="translate(0,0)"/>
<path d="" fill="#05278B" transform="translate(0,0)"/>
<path d="" fill="#07278B" transform="translate(0,0)"/>
<path d="" fill="#06288C" transform="translate(0,0)"/>
<path d="" fill="#06278B" transform="translate(0,0)"/>
<path d="" fill="#07288B" transform="translate(0,0)"/>
<path d="" fill="#04268B" transform="translate(0,0)"/>
<path d="" fill="#05278B" transform="translate(0,0)"/>
<path d="" fill="#07268B" transform="translate(0,0)"/>
<path d="" fill="#03268B" transform="translate(0,0)"/>
<path d="" fill="#04268A" transform="translate(0,0)"/>
<path d="" fill="#07278A" transform="translate(0,0)"/>
<path d="" fill="#06288C" transform="translate(0,0)"/>
<path d="" fill="#05288C" transform="translate(0,0)"/>
<path d="" fill="#05278A" transform="translate(0,0)"/>
<path d="" fill="#04278B" transform="translate(0,0)"/>
<path d="" fill="#04268B" transform="translate(0,0)"/>
<path d="" fill="#05288A" transform="translate(0,0)"/>
<path d="" fill="#04268B" transform="translate(0,0)"/>
<path d="" fill="#04268B" transform="translate(0,0)"/>
<path d="" fill="#05278B" transform="translate(0,0)"/>
<path d="" fill="#05278C" transform="translate(0,0)"/>
<path d="" fill="#05278B" transform="translate(0,0)"/>
<path d="" fill="#06288B" transform="translate(0,0)"/>
<path d="" fill="#06288B" transform="translate(0,0)"/>
<path d="" fill="#05288B" transform="translate(0,0)"/>
<path d="" fill="#06278B" transform="translate(0,0)"/>
<path d="" fill="#06288C" transform="translate(0,0)"/>
<path d="" fill="#05288B" transform="translate(0,0)"/>
<path d="" fill="#06278C" transform="translate(0,0)"/>
<path d="" fill="#04278B" transform="translate(0,0)"/>
<path d="" fill="#04278B" transform="translate(0,0)"/>
<path d="" fill="#05278B" transform="translate(0,0)"/>
<path d="" fill="#06298B" transform="translate(0,0)"/>
<path d="" fill="#04278B" transform="translate(0,0)"/>
<path d="" fill="#06278B" transform="translate(0,0)"/>
<path d="" fill="#04278B" transform="translate(0,0)"/>
<path d="" fill="#06298C" transform="translate(0,0)"/>
<path d="" fill="#04258A" transform="translate(0,0)"/>
<path d="" fill="#06288C" transform="translate(0,0)"/>
<path d="" fill="#05278B" transform="translate(0,0)"/>
<path d="" fill="#05268B" transform="translate(0,0)"/>
<path d="" fill="#05278C" transform="translate(0,0)"/>
<path d="" fill="#082A8D" transform="translate(0,0)"/>
<path d="" fill="#05278B" transform="translate(0,0)"/>
<path d="" fill="#04278B" transform="translate(0,0)"/>
<path d="" fill="#04258A" transform="translate(0,0)"/>
<path d="" fill="#05278B" transform="translate(0,0)"/>
<path d="" fill="#05268B" transform="translate(0,0)"/>
<path d="" fill="#04268B" transform="translate(0,0)"/>
<path d="" fill="#04278B" transform="translate(0,0)"/>
<path d="" fill="#04268B" transform="translate(0,0)"/>
<path d="" fill="#04278C" transform="translate(0,0)"/>
<path d="" fill="#04278B" transform="translate(0,0)"/>
<path d="" fill="#05278C" transform="translate(0,0)"/>
<path d="" fill="#05278B" transform="translate(0,0)"/>
<path d="" fill="#04278B" transform="translate(0,0)"/>
<path d="" fill="#05278B" transform="translate(0,0)"/>
<path d="" fill="#05278B" transform="translate(0,0)"/>
<path d="" fill="#06298C" transform="translate(0,0)"/>
<path d="" fill="#082A8B" transform="translate(0,0)"/>
<path d="" fill="#072A8B" transform="translate(0,0)"/>
<path d="" fill="#05278B" transform="translate(0,0)"/>
<path d="" fill="#04258C" transform="translate(0,0)"/>
<path d="" fill="#04278B" transform="translate(0,0)"/>
<path d="" fill="#07278A" transform="translate(0,0)"/>
<path d="" fill="#06278C" transform="translate(0,0)"/>
<path d="" fill="#07288A" transform="translate(0,0)"/>
<path d="" fill="#05278B" transform="translate(0,0)"/>
<path d="" fill="#05288B" transform="translate(0,0)"/>
<path d="" fill="#06288B" transform="translate(0,0)"/>
<path d="" fill="#05278B" transform="translate(0,0)"/>
<path d="" fill="#06298B" transform="translate(0,0)"/>
<path d="" fill="#2E4E9F" transform="translate(0,0)"/>
<path d="" fill="#05278B" transform="translate(0,0)"/>
<path d="" fill="#06268A" transform="translate(0,0)"/>
<path d="" fill="#05268B" transform="translate(0,0)"/>
<path d="" fill="#05288B" transform="translate(0,0)"/>
<path d="" fill="#06298C" transform="translate(0,0)"/>
<path d="" fill="#2C4D9F" transform="translate(0,0)"/>
<path d="" fill="#2E4E9F" transform="translate(0,0)"/>
<path d="" fill="#03278B" transform="translate(0,0)"/>
<path d="" fill="#2F4EA1" transform="translate(0,0)"/>
<path d="" fill="#2C4EA1" transform="translate(0,0)"/>
<path d="" fill="#06298A" transform="translate(0,0)"/>
<path d="" fill="#06288B" transform="translate(0,0)"/>
<path d="" fill="#2D4DA1" transform="translate(0,0)"/>
<path d="" fill="#24479E" transform="translate(0,0)"/>
<path d="" fill="#06298A" transform="translate(0,0)"/>
<path d="" fill="#04288B" transform="translate(0,0)"/>
<path d="" fill="#314FA3" transform="translate(0,0)"/>
<path d="" fill="#3150A3" transform="translate(0,0)"/>
<path d="" fill="#304E9E" transform="translate(0,0)"/>
<path d="" fill="#304FA1" transform="translate(0,0)"/>
<path d="" fill="#2D4C9E" transform="translate(0,0)"/>
<path d="" fill="#304DA0" transform="translate(0,0)"/>
<path d="" fill="#2E4C9F" transform="translate(0,0)"/>
<path d="" fill="#2F4E9F" transform="translate(0,0)"/>
<path d="" fill="#304DA0" transform="translate(0,0)"/>
<path d="" fill="#304FA2" transform="translate(0,0)"/>
<path d="" fill="#29499D" transform="translate(0,0)"/>
<path d="" fill="#2F4DA0" transform="translate(0,0)"/>
<path d="" fill="#2B4C9E" transform="translate(0,0)"/>
<path d="" fill="#2D4C9F" transform="translate(0,0)"/>
<path d="" fill="#2E4D9D" transform="translate(0,0)"/>
<path d="" fill="#2E4D9F" transform="translate(0,0)"/>
</svg>
